<mxfile host="Electron" agent="Mozilla/5.0 (Windows NT 10.0; Win64; x64) AppleWebKit/537.36 (KHTML, like Gecko) draw.io/26.0.9 Chrome/128.0.6613.186 Electron/32.2.5 Safari/537.36" version="26.0.9">
  <diagram name="Page-1" id="MN2OiSk_CmnS_w7M2duB">
    <mxGraphModel dx="3408" dy="2318" grid="1" gridSize="10" guides="1" tooltips="1" connect="1" arrows="1" fold="1" page="1" pageScale="1" pageWidth="850" pageHeight="1100" math="0" shadow="0">
      <root>
        <mxCell id="0" />
        <mxCell id="1" parent="0" />
        <mxCell id="fapul2Xf9I7T7R9drmPT-1" value="Order&lt;div&gt;&lt;br&gt;&lt;/div&gt;" style="text;strokeColor=none;fillColor=none;spacingLeft=4;spacingRight=4;overflow=hidden;rotatable=0;points=[[0,0.5],[1,0.5]];portConstraint=eastwest;fontSize=12;whiteSpace=wrap;html=1;" parent="1" vertex="1">
          <mxGeometry x="119" y="1945" width="40" height="30" as="geometry" />
        </mxCell>
        <mxCell id="fapul2Xf9I7T7R9drmPT-2" value="order_id" style="whiteSpace=wrap;html=1;align=center;" parent="1" vertex="1">
          <mxGeometry x="209" y="1940" width="100" height="40" as="geometry" />
        </mxCell>
        <mxCell id="fapul2Xf9I7T7R9drmPT-3" value="customer_id" style="whiteSpace=wrap;html=1;align=center;" parent="1" vertex="1">
          <mxGeometry x="309" y="1940" width="100" height="40" as="geometry" />
        </mxCell>
        <mxCell id="fapul2Xf9I7T7R9drmPT-4" value="station_id" style="whiteSpace=wrap;html=1;align=center;" parent="1" vertex="1">
          <mxGeometry x="409" y="1940" width="100" height="40" as="geometry" />
        </mxCell>
        <mxCell id="fapul2Xf9I7T7R9drmPT-5" value="customs_id" style="whiteSpace=wrap;html=1;align=center;" parent="1" vertex="1">
          <mxGeometry x="509" y="1940" width="100" height="40" as="geometry" />
        </mxCell>
        <mxCell id="fapul2Xf9I7T7R9drmPT-6" value="status" style="whiteSpace=wrap;html=1;align=center;" parent="1" vertex="1">
          <mxGeometry x="609" y="1940" width="100" height="40" as="geometry" />
        </mxCell>
        <mxCell id="fapul2Xf9I7T7R9drmPT-7" value="create_at" style="whiteSpace=wrap;html=1;align=center;" parent="1" vertex="1">
          <mxGeometry x="709" y="1940" width="100" height="40" as="geometry" />
        </mxCell>
        <mxCell id="fapul2Xf9I7T7R9drmPT-8" value="expected_delivery" style="whiteSpace=wrap;html=1;align=center;" parent="1" vertex="1">
          <mxGeometry x="809" y="1940" width="100" height="40" as="geometry" />
        </mxCell>
        <mxCell id="fapul2Xf9I7T7R9drmPT-9" value="amount" style="whiteSpace=wrap;html=1;align=center;" parent="1" vertex="1">
          <mxGeometry x="909" y="1940" width="100" height="40" as="geometry" />
        </mxCell>
        <mxCell id="fapul2Xf9I7T7R9drmPT-10" value="total_weight" style="whiteSpace=wrap;html=1;align=center;" parent="1" vertex="1">
          <mxGeometry x="1009" y="1940" width="100" height="40" as="geometry" />
        </mxCell>
        <mxCell id="fapul2Xf9I7T7R9drmPT-11" value="Customer" style="text;strokeColor=none;fillColor=none;spacingLeft=4;spacingRight=4;overflow=hidden;rotatable=0;points=[[0,0.5],[1,0.5]];portConstraint=eastwest;fontSize=12;whiteSpace=wrap;html=1;" parent="1" vertex="1">
          <mxGeometry x="114" y="1645" width="70" height="30" as="geometry" />
        </mxCell>
        <mxCell id="fapul2Xf9I7T7R9drmPT-12" value="customer_id" style="whiteSpace=wrap;html=1;align=center;" parent="1" vertex="1">
          <mxGeometry x="209" y="1640" width="100" height="40" as="geometry" />
        </mxCell>
        <mxCell id="fapul2Xf9I7T7R9drmPT-13" value="name" style="whiteSpace=wrap;html=1;align=center;" parent="1" vertex="1">
          <mxGeometry x="309" y="1640" width="100" height="40" as="geometry" />
        </mxCell>
        <mxCell id="fapul2Xf9I7T7R9drmPT-14" value="phone_number" style="whiteSpace=wrap;html=1;align=center;" parent="1" vertex="1">
          <mxGeometry x="409" y="1640" width="100" height="40" as="geometry" />
        </mxCell>
        <mxCell id="fapul2Xf9I7T7R9drmPT-15" value="country_id" style="whiteSpace=wrap;html=1;align=center;" parent="1" vertex="1">
          <mxGeometry x="509" y="1640" width="100" height="40" as="geometry" />
        </mxCell>
        <mxCell id="fapul2Xf9I7T7R9drmPT-16" value="address" style="whiteSpace=wrap;html=1;align=center;" parent="1" vertex="1">
          <mxGeometry x="609" y="1640" width="100" height="40" as="geometry" />
        </mxCell>
        <mxCell id="fapul2Xf9I7T7R9drmPT-17" value="tax_id" style="whiteSpace=wrap;html=1;align=center;" parent="1" vertex="1">
          <mxGeometry x="709" y="1640" width="100" height="40" as="geometry" />
        </mxCell>
        <mxCell id="fapul2Xf9I7T7R9drmPT-18" value="email" style="whiteSpace=wrap;html=1;align=center;" parent="1" vertex="1">
          <mxGeometry x="809" y="1640" width="100" height="40" as="geometry" />
        </mxCell>
        <mxCell id="fapul2Xf9I7T7R9drmPT-21" value="vehicle_id" style="whiteSpace=wrap;html=1;align=center;" parent="1" vertex="1">
          <mxGeometry x="207.5" y="2230" width="100" height="40" as="geometry" />
        </mxCell>
        <mxCell id="fapul2Xf9I7T7R9drmPT-22" value="provider_id" style="whiteSpace=wrap;html=1;align=center;" parent="1" vertex="1">
          <mxGeometry x="307.5" y="2230" width="100" height="40" as="geometry" />
        </mxCell>
        <mxCell id="fapul2Xf9I7T7R9drmPT-23" value="station_id" style="whiteSpace=wrap;html=1;align=center;" parent="1" vertex="1">
          <mxGeometry x="407.5" y="2230" width="100" height="40" as="geometry" />
        </mxCell>
        <mxCell id="fapul2Xf9I7T7R9drmPT-24" value="registration_contry" style="whiteSpace=wrap;html=1;align=center;" parent="1" vertex="1">
          <mxGeometry x="507.5" y="2230" width="122.5" height="40" as="geometry" />
        </mxCell>
        <mxCell id="fapul2Xf9I7T7R9drmPT-25" value="capacity" style="whiteSpace=wrap;html=1;align=center;" parent="1" vertex="1">
          <mxGeometry x="625" y="2230" width="100" height="40" as="geometry" />
        </mxCell>
        <mxCell id="fapul2Xf9I7T7R9drmPT-26" value="type" style="whiteSpace=wrap;html=1;align=center;" parent="1" vertex="1">
          <mxGeometry x="725" y="2230" width="110" height="40" as="geometry" />
        </mxCell>
        <mxCell id="fapul2Xf9I7T7R9drmPT-28" value="Vehicle" style="text;strokeColor=none;fillColor=none;spacingLeft=4;spacingRight=4;overflow=hidden;rotatable=0;points=[[0,0.5],[1,0.5]];portConstraint=eastwest;fontSize=12;whiteSpace=wrap;html=1;" parent="1" vertex="1">
          <mxGeometry x="112.5" y="2235" width="70" height="30" as="geometry" />
        </mxCell>
        <mxCell id="fapul2Xf9I7T7R9drmPT-29" value="driver_id" style="whiteSpace=wrap;html=1;align=center;" parent="1" vertex="1">
          <mxGeometry x="209.5" y="2330" width="100" height="40" as="geometry" />
        </mxCell>
        <mxCell id="fapul2Xf9I7T7R9drmPT-30" value="vehicle_id" style="whiteSpace=wrap;html=1;align=center;" parent="1" vertex="1">
          <mxGeometry x="309.5" y="2330" width="100" height="40" as="geometry" />
        </mxCell>
        <mxCell id="fapul2Xf9I7T7R9drmPT-31" value="name" style="whiteSpace=wrap;html=1;align=center;" parent="1" vertex="1">
          <mxGeometry x="409.5" y="2330" width="100" height="40" as="geometry" />
        </mxCell>
        <mxCell id="fapul2Xf9I7T7R9drmPT-32" value="nationality" style="whiteSpace=wrap;html=1;align=center;" parent="1" vertex="1">
          <mxGeometry x="509.5" y="2330" width="100" height="40" as="geometry" />
        </mxCell>
        <mxCell id="fapul2Xf9I7T7R9drmPT-34" value="visa_status" style="whiteSpace=wrap;html=1;align=center;" parent="1" vertex="1">
          <mxGeometry x="610" y="2330" width="100" height="40" as="geometry" />
        </mxCell>
        <mxCell id="fapul2Xf9I7T7R9drmPT-38" value="Driver" style="text;strokeColor=none;fillColor=none;spacingLeft=4;spacingRight=4;overflow=hidden;rotatable=0;points=[[0,0.5],[1,0.5]];portConstraint=eastwest;fontSize=12;whiteSpace=wrap;html=1;" parent="1" vertex="1">
          <mxGeometry x="114.5" y="2335" width="55" height="30" as="geometry" />
        </mxCell>
        <mxCell id="fapul2Xf9I7T7R9drmPT-40" value="route_id" style="whiteSpace=wrap;html=1;align=center;" parent="1" vertex="1">
          <mxGeometry x="209" y="2430" width="100" height="40" as="geometry" />
        </mxCell>
        <mxCell id="fapul2Xf9I7T7R9drmPT-41" value="station_from" style="whiteSpace=wrap;html=1;align=center;" parent="1" vertex="1">
          <mxGeometry x="309" y="2430" width="100" height="40" as="geometry" />
        </mxCell>
        <mxCell id="fapul2Xf9I7T7R9drmPT-42" value="station_to" style="whiteSpace=wrap;html=1;align=center;" parent="1" vertex="1">
          <mxGeometry x="409" y="2430" width="100" height="40" as="geometry" />
        </mxCell>
        <mxCell id="fapul2Xf9I7T7R9drmPT-43" value="distance" style="whiteSpace=wrap;html=1;align=center;" parent="1" vertex="1">
          <mxGeometry x="509" y="2430" width="100" height="40" as="geometry" />
        </mxCell>
        <mxCell id="fapul2Xf9I7T7R9drmPT-44" value="estimated_time" style="whiteSpace=wrap;html=1;align=center;" parent="1" vertex="1">
          <mxGeometry x="609" y="2430" width="100" height="40" as="geometry" />
        </mxCell>
        <mxCell id="fapul2Xf9I7T7R9drmPT-45" value="type" style="whiteSpace=wrap;html=1;align=center;" parent="1" vertex="1">
          <mxGeometry x="709" y="2430" width="100" height="40" as="geometry" />
        </mxCell>
        <mxCell id="fapul2Xf9I7T7R9drmPT-46" value="Route" style="text;strokeColor=none;fillColor=none;spacingLeft=4;spacingRight=4;overflow=hidden;rotatable=0;points=[[0,0.5],[1,0.5]];portConstraint=eastwest;fontSize=12;whiteSpace=wrap;html=1;" parent="1" vertex="1">
          <mxGeometry x="119" y="2435" width="55" height="30" as="geometry" />
        </mxCell>
        <mxCell id="fapul2Xf9I7T7R9drmPT-62" value="Station" style="text;strokeColor=none;fillColor=none;spacingLeft=4;spacingRight=4;overflow=hidden;rotatable=0;points=[[0,0.5],[1,0.5]];portConstraint=eastwest;fontSize=12;whiteSpace=wrap;html=1;" parent="1" vertex="1">
          <mxGeometry x="113" y="1745" width="70" height="30" as="geometry" />
        </mxCell>
        <mxCell id="fapul2Xf9I7T7R9drmPT-63" value="station_id" style="whiteSpace=wrap;html=1;align=center;" parent="1" vertex="1">
          <mxGeometry x="208" y="1740" width="100" height="40" as="geometry" />
        </mxCell>
        <mxCell id="fapul2Xf9I7T7R9drmPT-64" value="address" style="whiteSpace=wrap;html=1;align=center;" parent="1" vertex="1">
          <mxGeometry x="408" y="1740" width="100" height="40" as="geometry" />
        </mxCell>
        <mxCell id="fapul2Xf9I7T7R9drmPT-65" value="station_name" style="whiteSpace=wrap;html=1;align=center;" parent="1" vertex="1">
          <mxGeometry x="308" y="1740" width="100" height="40" as="geometry" />
        </mxCell>
        <mxCell id="fapul2Xf9I7T7R9drmPT-66" value="country_id" style="whiteSpace=wrap;html=1;align=center;" parent="1" vertex="1">
          <mxGeometry x="508" y="1740" width="100" height="40" as="geometry" />
        </mxCell>
        <mxCell id="fapul2Xf9I7T7R9drmPT-70" value="Shipment_Details" style="text;strokeColor=none;fillColor=none;spacingLeft=4;spacingRight=4;overflow=hidden;rotatable=0;points=[[0,0.5],[1,0.5]];portConstraint=eastwest;fontSize=12;whiteSpace=wrap;html=1;" parent="1" vertex="1">
          <mxGeometry x="85" y="2635" width="110" height="30" as="geometry" />
        </mxCell>
        <mxCell id="fapul2Xf9I7T7R9drmPT-71" value="shipment_id" style="whiteSpace=wrap;html=1;align=center;" parent="1" vertex="1">
          <mxGeometry x="210" y="2630" width="100" height="40" as="geometry" />
        </mxCell>
        <mxCell id="fapul2Xf9I7T7R9drmPT-72" value="order_id" style="whiteSpace=wrap;html=1;align=center;" parent="1" vertex="1">
          <mxGeometry x="310" y="2630" width="100" height="40" as="geometry" />
        </mxCell>
        <mxCell id="fapul2Xf9I7T7R9drmPT-73" value="vehicle_id" style="whiteSpace=wrap;html=1;align=center;" parent="1" vertex="1">
          <mxGeometry x="410" y="2630" width="100" height="40" as="geometry" />
        </mxCell>
        <mxCell id="fapul2Xf9I7T7R9drmPT-74" value="route_id" style="whiteSpace=wrap;html=1;align=center;" parent="1" vertex="1">
          <mxGeometry x="510" y="2630" width="100" height="40" as="geometry" />
        </mxCell>
        <mxCell id="fapul2Xf9I7T7R9drmPT-75" value="departure" style="whiteSpace=wrap;html=1;align=center;" parent="1" vertex="1">
          <mxGeometry x="610" y="2630" width="100" height="40" as="geometry" />
        </mxCell>
        <mxCell id="fapul2Xf9I7T7R9drmPT-76" value="arrival_time" style="whiteSpace=wrap;html=1;align=center;" parent="1" vertex="1">
          <mxGeometry x="710" y="2630" width="100" height="40" as="geometry" />
        </mxCell>
        <mxCell id="fapul2Xf9I7T7R9drmPT-78" value="Invoice" style="text;strokeColor=none;fillColor=none;spacingLeft=4;spacingRight=4;overflow=hidden;rotatable=0;points=[[0,0.5],[1,0.5]];portConstraint=eastwest;fontSize=12;whiteSpace=wrap;html=1;" parent="1" vertex="1">
          <mxGeometry x="110" y="2855" width="67" height="30" as="geometry" />
        </mxCell>
        <mxCell id="fapul2Xf9I7T7R9drmPT-79" value="invoice_id" style="whiteSpace=wrap;html=1;align=center;" parent="1" vertex="1">
          <mxGeometry x="209" y="2850" width="100" height="40" as="geometry" />
        </mxCell>
        <mxCell id="fapul2Xf9I7T7R9drmPT-80" value="order_id" style="whiteSpace=wrap;html=1;align=center;" parent="1" vertex="1">
          <mxGeometry x="309" y="2850" width="100" height="40" as="geometry" />
        </mxCell>
        <mxCell id="fapul2Xf9I7T7R9drmPT-81" value="currency_id" style="whiteSpace=wrap;html=1;align=center;" parent="1" vertex="1">
          <mxGeometry x="409" y="2850" width="100" height="40" as="geometry" />
        </mxCell>
        <mxCell id="fapul2Xf9I7T7R9drmPT-82" value="fee_id" style="whiteSpace=wrap;html=1;align=center;" parent="1" vertex="1">
          <mxGeometry x="509" y="2850" width="100" height="40" as="geometry" />
        </mxCell>
        <mxCell id="fapul2Xf9I7T7R9drmPT-83" value="vat" style="whiteSpace=wrap;html=1;align=center;" parent="1" vertex="1">
          <mxGeometry x="609" y="2850" width="100" height="40" as="geometry" />
        </mxCell>
        <mxCell id="fapul2Xf9I7T7R9drmPT-85" value="issue_date" style="whiteSpace=wrap;html=1;align=center;" parent="1" vertex="1">
          <mxGeometry x="709" y="2850" width="100" height="40" as="geometry" />
        </mxCell>
        <mxCell id="fapul2Xf9I7T7R9drmPT-86" value="Transport_Provider" style="text;strokeColor=none;fillColor=none;spacingLeft=4;spacingRight=4;overflow=hidden;rotatable=0;points=[[0,0.5],[1,0.5]];portConstraint=eastwest;fontSize=12;whiteSpace=wrap;html=1;" parent="1" vertex="1">
          <mxGeometry x="86" y="2055" width="115" height="30" as="geometry" />
        </mxCell>
        <mxCell id="fapul2Xf9I7T7R9drmPT-87" value="provider_id" style="whiteSpace=wrap;html=1;align=center;" parent="1" vertex="1">
          <mxGeometry x="210" y="2050" width="100" height="40" as="geometry" />
        </mxCell>
        <mxCell id="fapul2Xf9I7T7R9drmPT-88" value="provider_name" style="whiteSpace=wrap;html=1;align=center;" parent="1" vertex="1">
          <mxGeometry x="310" y="2050" width="100" height="40" as="geometry" />
        </mxCell>
        <mxCell id="fapul2Xf9I7T7R9drmPT-89" value="country_id" style="whiteSpace=wrap;html=1;align=center;" parent="1" vertex="1">
          <mxGeometry x="410" y="2050" width="100" height="40" as="geometry" />
        </mxCell>
        <mxCell id="fapul2Xf9I7T7R9drmPT-90" value="type" style="whiteSpace=wrap;html=1;align=center;" parent="1" vertex="1">
          <mxGeometry x="510" y="2050" width="100" height="40" as="geometry" />
        </mxCell>
        <mxCell id="fapul2Xf9I7T7R9drmPT-94" value="Warehouse" style="text;strokeColor=none;fillColor=none;spacingLeft=4;spacingRight=4;overflow=hidden;rotatable=0;points=[[0,0.5],[1,0.5]];portConstraint=eastwest;fontSize=12;whiteSpace=wrap;html=1;" parent="1" vertex="1">
          <mxGeometry x="98.5" y="2535" width="73.5" height="30" as="geometry" />
        </mxCell>
        <mxCell id="fapul2Xf9I7T7R9drmPT-95" value="warehouse_id" style="whiteSpace=wrap;html=1;align=center;" parent="1" vertex="1">
          <mxGeometry x="210" y="2530" width="100" height="40" as="geometry" />
        </mxCell>
        <mxCell id="fapul2Xf9I7T7R9drmPT-96" value="station_id" style="whiteSpace=wrap;html=1;align=center;" parent="1" vertex="1">
          <mxGeometry x="410" y="2530" width="100" height="40" as="geometry" />
        </mxCell>
        <mxCell id="fapul2Xf9I7T7R9drmPT-98" value="capacity" style="whiteSpace=wrap;html=1;align=center;" parent="1" vertex="1">
          <mxGeometry x="310" y="2530" width="100" height="40" as="geometry" />
        </mxCell>
        <mxCell id="fapul2Xf9I7T7R9drmPT-102" value="Shipping_Fee" style="text;strokeColor=none;fillColor=none;spacingLeft=4;spacingRight=4;overflow=hidden;rotatable=0;points=[[0,0.5],[1,0.5]];portConstraint=eastwest;fontSize=12;whiteSpace=wrap;html=1;" parent="1" vertex="1">
          <mxGeometry x="102.25" y="2755" width="83.5" height="30" as="geometry" />
        </mxCell>
        <mxCell id="fapul2Xf9I7T7R9drmPT-103" value="fee_id" style="whiteSpace=wrap;html=1;align=center;" parent="1" vertex="1">
          <mxGeometry x="213.75" y="2750" width="100" height="40" as="geometry" />
        </mxCell>
        <mxCell id="fapul2Xf9I7T7R9drmPT-104" value="route_id" style="whiteSpace=wrap;html=1;align=center;" parent="1" vertex="1">
          <mxGeometry x="313.75" y="2750" width="100" height="40" as="geometry" />
        </mxCell>
        <mxCell id="fapul2Xf9I7T7R9drmPT-106" value="base_fee" style="whiteSpace=wrap;html=1;align=center;" parent="1" vertex="1">
          <mxGeometry x="412.75" y="2750" width="100" height="40" as="geometry" />
        </mxCell>
        <mxCell id="fapul2Xf9I7T7R9drmPT-107" value="tax_rate" style="whiteSpace=wrap;html=1;align=center;" parent="1" vertex="1">
          <mxGeometry x="512.75" y="2750" width="100" height="40" as="geometry" />
        </mxCell>
        <mxCell id="fapul2Xf9I7T7R9drmPT-110" value="Customs" style="text;strokeColor=none;fillColor=none;spacingLeft=4;spacingRight=4;overflow=hidden;rotatable=0;points=[[0,0.5],[1,0.5]];portConstraint=eastwest;fontSize=12;whiteSpace=wrap;html=1;" parent="1" vertex="1">
          <mxGeometry x="104" y="1845" width="67" height="30" as="geometry" />
        </mxCell>
        <mxCell id="fapul2Xf9I7T7R9drmPT-111" value="customs_id" style="whiteSpace=wrap;html=1;align=center;" parent="1" vertex="1">
          <mxGeometry x="209" y="1840" width="100" height="40" as="geometry" />
        </mxCell>
        <mxCell id="fapul2Xf9I7T7R9drmPT-112" value="country_id" style="whiteSpace=wrap;html=1;align=center;" parent="1" vertex="1">
          <mxGeometry x="309" y="1840" width="100" height="40" as="geometry" />
        </mxCell>
        <mxCell id="fapul2Xf9I7T7R9drmPT-113" value="regulation" style="whiteSpace=wrap;html=1;align=center;" parent="1" vertex="1">
          <mxGeometry x="409" y="1840" width="100" height="40" as="geometry" />
        </mxCell>
        <mxCell id="fapul2Xf9I7T7R9drmPT-114" value="processing_time" style="whiteSpace=wrap;html=1;align=center;" parent="1" vertex="1">
          <mxGeometry x="509" y="1840" width="100" height="40" as="geometry" />
        </mxCell>
        <mxCell id="fapul2Xf9I7T7R9drmPT-126" value="Currency_Exchange" style="text;strokeColor=none;fillColor=none;spacingLeft=4;spacingRight=4;overflow=hidden;rotatable=0;points=[[0,0.5],[1,0.5]];portConstraint=eastwest;fontSize=12;whiteSpace=wrap;html=1;" parent="1" vertex="1">
          <mxGeometry x="63" y="2157.5" width="120" height="25" as="geometry" />
        </mxCell>
        <mxCell id="fapul2Xf9I7T7R9drmPT-127" value="currency_id" style="whiteSpace=wrap;html=1;align=center;" parent="1" vertex="1">
          <mxGeometry x="208" y="2150" width="100" height="40" as="geometry" />
        </mxCell>
        <mxCell id="fapul2Xf9I7T7R9drmPT-128" value="country_id" style="whiteSpace=wrap;html=1;align=center;" parent="1" vertex="1">
          <mxGeometry x="308" y="2150" width="100" height="40" as="geometry" />
        </mxCell>
        <mxCell id="fapul2Xf9I7T7R9drmPT-129" value="exchange_rate" style="whiteSpace=wrap;html=1;align=center;" parent="1" vertex="1">
          <mxGeometry x="408" y="2150" width="100" height="40" as="geometry" />
        </mxCell>
        <mxCell id="fapul2Xf9I7T7R9drmPT-130" value="last_updated" style="whiteSpace=wrap;html=1;align=center;" parent="1" vertex="1">
          <mxGeometry x="508" y="2150" width="100" height="40" as="geometry" />
        </mxCell>
        <mxCell id="4PiyHeSA2Cq_FkqWzUte-1" value="Orders" style="whiteSpace=wrap;html=1;align=center;" parent="1" vertex="1">
          <mxGeometry x="310" y="480" width="100" height="40" as="geometry" />
        </mxCell>
        <mxCell id="4PiyHeSA2Cq_FkqWzUte-2" value="order_id" style="ellipse;whiteSpace=wrap;html=1;align=center;fontStyle=4;" parent="1" vertex="1">
          <mxGeometry x="150" y="360" width="100" height="40" as="geometry" />
        </mxCell>
        <mxCell id="4PiyHeSA2Cq_FkqWzUte-3" value="status" style="ellipse;whiteSpace=wrap;html=1;align=center;" parent="1" vertex="1">
          <mxGeometry x="430" y="340" width="100" height="40" as="geometry" />
        </mxCell>
        <mxCell id="4PiyHeSA2Cq_FkqWzUte-4" value="created_at" style="ellipse;whiteSpace=wrap;html=1;align=center;" parent="1" vertex="1">
          <mxGeometry x="108" y="570" width="100" height="40" as="geometry" />
        </mxCell>
        <mxCell id="4PiyHeSA2Cq_FkqWzUte-5" value="delivery_date" style="ellipse;whiteSpace=wrap;html=1;align=center;" parent="1" vertex="1">
          <mxGeometry x="450" y="600" width="100" height="40" as="geometry" />
        </mxCell>
        <mxCell id="4PiyHeSA2Cq_FkqWzUte-9" value="" style="endArrow=none;html=1;rounded=0;exitX=0.5;exitY=0;exitDx=0;exitDy=0;entryX=0;entryY=0.5;entryDx=0;entryDy=0;" parent="1" source="4PiyHeSA2Cq_FkqWzUte-4" target="4PiyHeSA2Cq_FkqWzUte-1" edge="1">
          <mxGeometry relative="1" as="geometry">
            <mxPoint x="215.35533905933198" y="524.9978643762671" as="sourcePoint" />
            <mxPoint x="310" y="499.14" as="targetPoint" />
          </mxGeometry>
        </mxCell>
        <mxCell id="4PiyHeSA2Cq_FkqWzUte-10" value="" style="endArrow=none;html=1;rounded=0;exitX=0.75;exitY=1;exitDx=0;exitDy=0;entryX=0.3;entryY=0;entryDx=0;entryDy=0;entryPerimeter=0;" parent="1" source="4PiyHeSA2Cq_FkqWzUte-1" target="4PiyHeSA2Cq_FkqWzUte-5" edge="1">
          <mxGeometry relative="1" as="geometry">
            <mxPoint x="410" y="550" as="sourcePoint" />
            <mxPoint x="570" y="550" as="targetPoint" />
          </mxGeometry>
        </mxCell>
        <mxCell id="4PiyHeSA2Cq_FkqWzUte-11" value="" style="endArrow=none;html=1;rounded=0;exitX=0.644;exitY=0.988;exitDx=0;exitDy=0;exitPerimeter=0;entryX=0.25;entryY=0;entryDx=0;entryDy=0;" parent="1" source="4PiyHeSA2Cq_FkqWzUte-2" target="4PiyHeSA2Cq_FkqWzUte-1" edge="1">
          <mxGeometry relative="1" as="geometry">
            <mxPoint x="320" y="510" as="sourcePoint" />
            <mxPoint x="480" y="510" as="targetPoint" />
          </mxGeometry>
        </mxCell>
        <mxCell id="4PiyHeSA2Cq_FkqWzUte-12" value="" style="endArrow=none;html=1;rounded=0;exitX=0.75;exitY=0;exitDx=0;exitDy=0;entryX=0.409;entryY=1.054;entryDx=0;entryDy=0;entryPerimeter=0;" parent="1" source="4PiyHeSA2Cq_FkqWzUte-1" target="4PiyHeSA2Cq_FkqWzUte-3" edge="1">
          <mxGeometry relative="1" as="geometry">
            <mxPoint x="420" y="480" as="sourcePoint" />
            <mxPoint x="580" y="480" as="targetPoint" />
          </mxGeometry>
        </mxCell>
        <mxCell id="4PiyHeSA2Cq_FkqWzUte-13" value="Customer" style="whiteSpace=wrap;html=1;align=center;" parent="1" vertex="1">
          <mxGeometry x="660" y="480" width="100" height="40" as="geometry" />
        </mxCell>
        <mxCell id="4PiyHeSA2Cq_FkqWzUte-14" value="name" style="ellipse;whiteSpace=wrap;html=1;align=center;" parent="1" vertex="1">
          <mxGeometry x="712" y="340" width="100" height="40" as="geometry" />
        </mxCell>
        <mxCell id="4PiyHeSA2Cq_FkqWzUte-15" value="phone_number" style="ellipse;whiteSpace=wrap;html=1;align=center;" parent="1" vertex="1">
          <mxGeometry x="800" y="380" width="100" height="40" as="geometry" />
        </mxCell>
        <mxCell id="4PiyHeSA2Cq_FkqWzUte-16" value="&lt;span id=&quot;docs-internal-guid-d8e79740-7fff-942d-7cf9-8be79e3175e8&quot;&gt;&lt;span style=&quot;background-color: transparent; font-variant-numeric: normal; font-variant-east-asian: normal; font-variant-alternates: normal; font-variant-position: normal; vertical-align: baseline; white-space-collapse: preserve;&quot;&gt;&lt;font style=&quot;font-size: 12px;&quot; face=&quot;Helvetica&quot;&gt;address &lt;/font&gt;&lt;/span&gt;&lt;/span&gt;" style="ellipse;whiteSpace=wrap;html=1;align=center;" parent="1" vertex="1">
          <mxGeometry x="750" y="610" width="110" height="50" as="geometry" />
        </mxCell>
        <mxCell id="4PiyHeSA2Cq_FkqWzUte-17" value="&lt;span style=&quot;white-space-collapse: preserve;&quot;&gt;&lt;font style=&quot;font-size: 12px;&quot; face=&quot;Helvetica&quot;&gt;email&lt;/font&gt;&lt;/span&gt;" style="ellipse;whiteSpace=wrap;html=1;align=center;" parent="1" vertex="1">
          <mxGeometry x="588" y="610" width="100" height="40" as="geometry" />
        </mxCell>
        <mxCell id="4PiyHeSA2Cq_FkqWzUte-18" value="" style="endArrow=none;html=1;rounded=0;exitX=0.5;exitY=1;exitDx=0;exitDy=0;entryX=0.5;entryY=0;entryDx=0;entryDy=0;" parent="1" source="4PiyHeSA2Cq_FkqWzUte-13" target="4PiyHeSA2Cq_FkqWzUte-17" edge="1">
          <mxGeometry relative="1" as="geometry">
            <mxPoint x="630" y="560" as="sourcePoint" />
            <mxPoint x="790" y="560" as="targetPoint" />
          </mxGeometry>
        </mxCell>
        <mxCell id="4PiyHeSA2Cq_FkqWzUte-19" value="" style="endArrow=none;html=1;rounded=0;exitX=0.5;exitY=1;exitDx=0;exitDy=0;entryX=0.5;entryY=0;entryDx=0;entryDy=0;" parent="1" source="4PiyHeSA2Cq_FkqWzUte-13" target="4PiyHeSA2Cq_FkqWzUte-16" edge="1">
          <mxGeometry relative="1" as="geometry">
            <mxPoint x="820" y="520" as="sourcePoint" />
            <mxPoint x="980" y="520" as="targetPoint" />
          </mxGeometry>
        </mxCell>
        <mxCell id="4PiyHeSA2Cq_FkqWzUte-20" value="" style="endArrow=none;html=1;rounded=0;exitX=0.5;exitY=1;exitDx=0;exitDy=0;" parent="1" source="4PiyHeSA2Cq_FkqWzUte-14" edge="1">
          <mxGeometry relative="1" as="geometry">
            <mxPoint x="670" y="450" as="sourcePoint" />
            <mxPoint x="700" y="480" as="targetPoint" />
          </mxGeometry>
        </mxCell>
        <mxCell id="4PiyHeSA2Cq_FkqWzUte-21" value="" style="endArrow=none;html=1;rounded=0;exitX=0.428;exitY=0.015;exitDx=0;exitDy=0;exitPerimeter=0;entryX=0.5;entryY=1;entryDx=0;entryDy=0;" parent="1" source="4PiyHeSA2Cq_FkqWzUte-13" target="4PiyHeSA2Cq_FkqWzUte-15" edge="1">
          <mxGeometry relative="1" as="geometry">
            <mxPoint x="740" y="420" as="sourcePoint" />
            <mxPoint x="900" y="420" as="targetPoint" />
          </mxGeometry>
        </mxCell>
        <mxCell id="4PiyHeSA2Cq_FkqWzUte-22" value="customer_id" style="ellipse;whiteSpace=wrap;html=1;align=center;fontStyle=4;" parent="1" vertex="1">
          <mxGeometry x="600" y="360" width="100" height="40" as="geometry" />
        </mxCell>
        <mxCell id="4PiyHeSA2Cq_FkqWzUte-23" value="" style="endArrow=none;html=1;rounded=0;exitX=0.406;exitY=0.952;exitDx=0;exitDy=0;exitPerimeter=0;entryX=0.421;entryY=0.032;entryDx=0;entryDy=0;entryPerimeter=0;" parent="1" source="4PiyHeSA2Cq_FkqWzUte-22" target="4PiyHeSA2Cq_FkqWzUte-13" edge="1">
          <mxGeometry relative="1" as="geometry">
            <mxPoint x="570" y="440" as="sourcePoint" />
            <mxPoint x="730" y="440" as="targetPoint" />
          </mxGeometry>
        </mxCell>
        <mxCell id="4PiyHeSA2Cq_FkqWzUte-24" value="has" style="shape=rhombus;perimeter=rhombusPerimeter;whiteSpace=wrap;html=1;align=center;" parent="1" vertex="1">
          <mxGeometry x="500" y="498" width="70" height="42.5" as="geometry" />
        </mxCell>
        <mxCell id="4PiyHeSA2Cq_FkqWzUte-25" value="" style="endArrow=none;html=1;rounded=0;exitX=1;exitY=1;exitDx=0;exitDy=0;entryX=0;entryY=0.5;entryDx=0;entryDy=0;" parent="1" source="4PiyHeSA2Cq_FkqWzUte-1" target="4PiyHeSA2Cq_FkqWzUte-24" edge="1">
          <mxGeometry relative="1" as="geometry">
            <mxPoint x="370" y="540" as="sourcePoint" />
            <mxPoint x="530" y="540" as="targetPoint" />
          </mxGeometry>
        </mxCell>
        <mxCell id="4PiyHeSA2Cq_FkqWzUte-26" value="" style="endArrow=none;html=1;rounded=0;exitX=1;exitY=0.5;exitDx=0;exitDy=0;entryX=0;entryY=1;entryDx=0;entryDy=0;" parent="1" source="4PiyHeSA2Cq_FkqWzUte-24" target="4PiyHeSA2Cq_FkqWzUte-13" edge="1">
          <mxGeometry relative="1" as="geometry">
            <mxPoint x="550" y="540" as="sourcePoint" />
            <mxPoint x="710" y="540" as="targetPoint" />
          </mxGeometry>
        </mxCell>
        <mxCell id="4PiyHeSA2Cq_FkqWzUte-33" value="1&lt;div&gt;&lt;br&gt;&lt;/div&gt;" style="text;strokeColor=none;fillColor=none;spacingLeft=4;spacingRight=4;overflow=hidden;rotatable=0;points=[[0,0.5],[1,0.5]];portConstraint=eastwest;fontSize=12;whiteSpace=wrap;html=1;" parent="1" vertex="1">
          <mxGeometry x="640" y="493.75" width="20" height="25" as="geometry" />
        </mxCell>
        <mxCell id="4PiyHeSA2Cq_FkqWzUte-34" value="N" style="text;strokeColor=none;fillColor=none;spacingLeft=4;spacingRight=4;overflow=hidden;rotatable=0;points=[[0,0.5],[1,0.5]];portConstraint=eastwest;fontSize=12;whiteSpace=wrap;html=1;" parent="1" vertex="1">
          <mxGeometry x="410" y="493.75" width="20" height="25" as="geometry" />
        </mxCell>
        <mxCell id="4PiyHeSA2Cq_FkqWzUte-45" style="edgeStyle=orthogonalEdgeStyle;rounded=0;orthogonalLoop=1;jettySize=auto;html=1;exitX=1;exitY=0.5;exitDx=0;exitDy=0;" parent="1" edge="1">
          <mxGeometry relative="1" as="geometry">
            <mxPoint x="347.5" y="537.5" as="sourcePoint" />
            <mxPoint x="347.5" y="537.5" as="targetPoint" />
          </mxGeometry>
        </mxCell>
        <mxCell id="4PiyHeSA2Cq_FkqWzUte-66" value="Country" style="whiteSpace=wrap;html=1;align=center;" parent="1" vertex="1">
          <mxGeometry x="1040" y="480" width="100" height="40" as="geometry" />
        </mxCell>
        <mxCell id="4PiyHeSA2Cq_FkqWzUte-71" value="has" style="shape=rhombus;perimeter=rhombusPerimeter;whiteSpace=wrap;html=1;align=center;" parent="1" vertex="1">
          <mxGeometry x="850" y="475" width="100" height="50" as="geometry" />
        </mxCell>
        <mxCell id="4PiyHeSA2Cq_FkqWzUte-72" value="" style="endArrow=none;html=1;rounded=0;exitX=1;exitY=0.5;exitDx=0;exitDy=0;entryX=0;entryY=0.5;entryDx=0;entryDy=0;" parent="1" source="4PiyHeSA2Cq_FkqWzUte-71" target="4PiyHeSA2Cq_FkqWzUte-66" edge="1">
          <mxGeometry relative="1" as="geometry">
            <mxPoint x="880" y="570" as="sourcePoint" />
            <mxPoint x="1040" y="570" as="targetPoint" />
          </mxGeometry>
        </mxCell>
        <mxCell id="4PiyHeSA2Cq_FkqWzUte-73" value="" style="endArrow=none;html=1;rounded=0;exitX=1;exitY=0.5;exitDx=0;exitDy=0;entryX=0;entryY=0.5;entryDx=0;entryDy=0;" parent="1" source="4PiyHeSA2Cq_FkqWzUte-13" target="4PiyHeSA2Cq_FkqWzUte-71" edge="1">
          <mxGeometry relative="1" as="geometry">
            <mxPoint x="780" y="490" as="sourcePoint" />
            <mxPoint x="940" y="490" as="targetPoint" />
          </mxGeometry>
        </mxCell>
        <mxCell id="4PiyHeSA2Cq_FkqWzUte-74" value="N" style="text;strokeColor=none;fillColor=none;spacingLeft=4;spacingRight=4;overflow=hidden;rotatable=0;points=[[0,0.5],[1,0.5]];portConstraint=eastwest;fontSize=12;whiteSpace=wrap;html=1;" parent="1" vertex="1">
          <mxGeometry x="770" y="470" width="20" height="25" as="geometry" />
        </mxCell>
        <mxCell id="4PiyHeSA2Cq_FkqWzUte-75" value="1&lt;div&gt;&lt;br&gt;&lt;/div&gt;" style="text;strokeColor=none;fillColor=none;spacingLeft=4;spacingRight=4;overflow=hidden;rotatable=0;points=[[0,0.5],[1,0.5]];portConstraint=eastwest;fontSize=12;whiteSpace=wrap;html=1;" parent="1" vertex="1">
          <mxGeometry x="1000" y="470" width="30" height="25" as="geometry" />
        </mxCell>
        <mxCell id="4PiyHeSA2Cq_FkqWzUte-95" value="has" style="shape=rhombus;perimeter=rhombusPerimeter;whiteSpace=wrap;html=1;align=center;" parent="1" vertex="1">
          <mxGeometry x="1060" y="847.5" width="70" height="50" as="geometry" />
        </mxCell>
        <mxCell id="4PiyHeSA2Cq_FkqWzUte-96" value="" style="endArrow=none;html=1;rounded=0;exitX=0.571;exitY=0.994;exitDx=0;exitDy=0;entryX=0.5;entryY=0;entryDx=0;entryDy=0;exitPerimeter=0;" parent="1" source="4PiyHeSA2Cq_FkqWzUte-66" target="4PiyHeSA2Cq_FkqWzUte-95" edge="1">
          <mxGeometry relative="1" as="geometry">
            <mxPoint x="1150" y="850" as="sourcePoint" />
            <mxPoint x="1310" y="850" as="targetPoint" />
            <Array as="points" />
          </mxGeometry>
        </mxCell>
        <mxCell id="4PiyHeSA2Cq_FkqWzUte-99" value="1" style="text;strokeColor=none;fillColor=none;spacingLeft=4;spacingRight=4;overflow=hidden;rotatable=0;points=[[0,0.5],[1,0.5]];portConstraint=eastwest;fontSize=12;whiteSpace=wrap;html=1;" parent="1" vertex="1">
          <mxGeometry x="1120" y="518.75" width="20" height="27.5" as="geometry" />
        </mxCell>
        <mxCell id="4PiyHeSA2Cq_FkqWzUte-106" value="Region" style="whiteSpace=wrap;html=1;align=center;" parent="1" vertex="1">
          <mxGeometry x="1330" y="480" width="100" height="40" as="geometry" />
        </mxCell>
        <mxCell id="4PiyHeSA2Cq_FkqWzUte-107" value="has" style="shape=rhombus;perimeter=rhombusPerimeter;whiteSpace=wrap;html=1;align=center;" parent="1" vertex="1">
          <mxGeometry x="1200" y="475" width="80" height="50" as="geometry" />
        </mxCell>
        <mxCell id="4PiyHeSA2Cq_FkqWzUte-109" value="" style="endArrow=none;html=1;rounded=0;exitX=1;exitY=0.5;exitDx=0;exitDy=0;entryX=0;entryY=0.5;entryDx=0;entryDy=0;" parent="1" source="4PiyHeSA2Cq_FkqWzUte-66" target="4PiyHeSA2Cq_FkqWzUte-107" edge="1">
          <mxGeometry relative="1" as="geometry">
            <mxPoint x="1190" y="530" as="sourcePoint" />
            <mxPoint x="1350" y="530" as="targetPoint" />
          </mxGeometry>
        </mxCell>
        <mxCell id="4PiyHeSA2Cq_FkqWzUte-110" value="" style="endArrow=none;html=1;rounded=0;exitX=1;exitY=0.5;exitDx=0;exitDy=0;entryX=0;entryY=0.5;entryDx=0;entryDy=0;" parent="1" source="4PiyHeSA2Cq_FkqWzUte-107" target="4PiyHeSA2Cq_FkqWzUte-106" edge="1">
          <mxGeometry relative="1" as="geometry">
            <mxPoint x="1280" y="540" as="sourcePoint" />
            <mxPoint x="1440" y="540" as="targetPoint" />
          </mxGeometry>
        </mxCell>
        <mxCell id="4PiyHeSA2Cq_FkqWzUte-111" value="1" style="text;strokeColor=none;fillColor=none;spacingLeft=4;spacingRight=4;overflow=hidden;rotatable=0;points=[[0,0.5],[1,0.5]];portConstraint=eastwest;fontSize=12;whiteSpace=wrap;html=1;" parent="1" vertex="1">
          <mxGeometry x="1310" y="470" width="20" height="30" as="geometry" />
        </mxCell>
        <mxCell id="4PiyHeSA2Cq_FkqWzUte-112" value="N" style="text;strokeColor=none;fillColor=none;spacingLeft=4;spacingRight=4;overflow=hidden;rotatable=0;points=[[0,0.5],[1,0.5]];portConstraint=eastwest;fontSize=12;whiteSpace=wrap;html=1;" parent="1" vertex="1">
          <mxGeometry x="1150" y="475" width="20" height="25" as="geometry" />
        </mxCell>
        <mxCell id="8ktQpaHQvq93Z4VPpIjw-1" value="Station" style="whiteSpace=wrap;html=1;align=center;" parent="1" vertex="1">
          <mxGeometry x="310" y="250" width="100" height="40" as="geometry" />
        </mxCell>
        <mxCell id="8ktQpaHQvq93Z4VPpIjw-2" value="has" style="shape=rhombus;perimeter=rhombusPerimeter;whiteSpace=wrap;html=1;align=center;" parent="1" vertex="1">
          <mxGeometry x="1090" y="240" width="80" height="60" as="geometry" />
        </mxCell>
        <mxCell id="8ktQpaHQvq93Z4VPpIjw-3" value="" style="endArrow=none;html=1;rounded=0;exitX=0.5;exitY=1;exitDx=0;exitDy=0;entryX=0.9;entryY=0;entryDx=0;entryDy=0;entryPerimeter=0;" parent="1" source="8ktQpaHQvq93Z4VPpIjw-2" target="4PiyHeSA2Cq_FkqWzUte-66" edge="1">
          <mxGeometry relative="1" as="geometry">
            <mxPoint x="1050" y="410" as="sourcePoint" />
            <mxPoint x="1210" y="410" as="targetPoint" />
          </mxGeometry>
        </mxCell>
        <mxCell id="8ktQpaHQvq93Z4VPpIjw-4" value="" style="endArrow=none;html=1;rounded=0;entryX=0;entryY=0.5;entryDx=0;entryDy=0;exitX=1;exitY=0.5;exitDx=0;exitDy=0;" parent="1" source="8ktQpaHQvq93Z4VPpIjw-1" target="8ktQpaHQvq93Z4VPpIjw-2" edge="1">
          <mxGeometry relative="1" as="geometry">
            <mxPoint x="420" y="250" as="sourcePoint" />
            <mxPoint x="1220" y="260" as="targetPoint" />
          </mxGeometry>
        </mxCell>
        <mxCell id="8ktQpaHQvq93Z4VPpIjw-5" value="Customs" style="whiteSpace=wrap;html=1;align=center;" parent="1" vertex="1">
          <mxGeometry x="315" y="725" width="100" height="40" as="geometry" />
        </mxCell>
        <mxCell id="8ktQpaHQvq93Z4VPpIjw-6" value="has" style="shape=rhombus;perimeter=rhombusPerimeter;whiteSpace=wrap;html=1;align=center;" parent="1" vertex="1">
          <mxGeometry x="720" y="720" width="80" height="50" as="geometry" />
        </mxCell>
        <mxCell id="8ktQpaHQvq93Z4VPpIjw-7" value="" style="endArrow=none;html=1;rounded=0;exitX=0.75;exitY=1;exitDx=0;exitDy=0;entryX=1;entryY=0.5;entryDx=0;entryDy=0;" parent="1" source="4PiyHeSA2Cq_FkqWzUte-66" target="8ktQpaHQvq93Z4VPpIjw-6" edge="1">
          <mxGeometry relative="1" as="geometry">
            <mxPoint x="1080" y="720" as="sourcePoint" />
            <mxPoint x="1240" y="720" as="targetPoint" />
            <Array as="points">
              <mxPoint x="1115" y="745" />
            </Array>
          </mxGeometry>
        </mxCell>
        <mxCell id="8ktQpaHQvq93Z4VPpIjw-8" value="" style="endArrow=none;html=1;rounded=0;exitX=0;exitY=0.5;exitDx=0;exitDy=0;entryX=1;entryY=0.5;entryDx=0;entryDy=0;" parent="1" source="8ktQpaHQvq93Z4VPpIjw-6" target="8ktQpaHQvq93Z4VPpIjw-5" edge="1">
          <mxGeometry relative="1" as="geometry">
            <mxPoint x="1280" y="720" as="sourcePoint" />
            <mxPoint x="1440" y="720" as="targetPoint" />
          </mxGeometry>
        </mxCell>
        <mxCell id="8ktQpaHQvq93Z4VPpIjw-9" value="1" style="text;strokeColor=none;fillColor=none;spacingLeft=4;spacingRight=4;overflow=hidden;rotatable=0;points=[[0,0.5],[1,0.5]];portConstraint=eastwest;fontSize=12;whiteSpace=wrap;html=1;" parent="1" vertex="1">
          <mxGeometry x="1130" y="450" width="20" height="30" as="geometry" />
        </mxCell>
        <mxCell id="8ktQpaHQvq93Z4VPpIjw-10" value="N" style="text;strokeColor=none;fillColor=none;spacingLeft=4;spacingRight=4;overflow=hidden;rotatable=0;points=[[0,0.5],[1,0.5]];portConstraint=eastwest;fontSize=12;whiteSpace=wrap;html=1;" parent="1" vertex="1">
          <mxGeometry x="415" y="240" width="20" height="25" as="geometry" />
        </mxCell>
        <mxCell id="8ktQpaHQvq93Z4VPpIjw-13" value="Transport_Provider" style="whiteSpace=wrap;html=1;align=center;" parent="1" vertex="1">
          <mxGeometry x="1230" y="852.5" width="110" height="40" as="geometry" />
        </mxCell>
        <mxCell id="8ktQpaHQvq93Z4VPpIjw-14" value="" style="endArrow=none;html=1;rounded=0;exitX=1;exitY=0.5;exitDx=0;exitDy=0;entryX=0;entryY=0.5;entryDx=0;entryDy=0;" parent="1" source="4PiyHeSA2Cq_FkqWzUte-95" target="8ktQpaHQvq93Z4VPpIjw-13" edge="1">
          <mxGeometry relative="1" as="geometry">
            <mxPoint x="920" y="912.5" as="sourcePoint" />
            <mxPoint x="1080" y="912.5" as="targetPoint" />
          </mxGeometry>
        </mxCell>
        <mxCell id="8ktQpaHQvq93Z4VPpIjw-16" value="Currency_Exchange" style="whiteSpace=wrap;html=1;align=center;" parent="1" vertex="1">
          <mxGeometry x="855" y="50" width="130" height="40" as="geometry" />
        </mxCell>
        <mxCell id="8ktQpaHQvq93Z4VPpIjw-17" value="has" style="shape=rhombus;perimeter=rhombusPerimeter;whiteSpace=wrap;html=1;align=center;" parent="1" vertex="1">
          <mxGeometry x="860" y="180" width="120" height="60" as="geometry" />
        </mxCell>
        <mxCell id="8ktQpaHQvq93Z4VPpIjw-18" value="" style="endArrow=none;html=1;rounded=0;exitX=0.5;exitY=1;exitDx=0;exitDy=0;entryX=0.5;entryY=0;entryDx=0;entryDy=0;" parent="1" source="8ktQpaHQvq93Z4VPpIjw-16" target="8ktQpaHQvq93Z4VPpIjw-17" edge="1">
          <mxGeometry relative="1" as="geometry">
            <mxPoint x="962" y="150" as="sourcePoint" />
            <mxPoint x="1122" y="150" as="targetPoint" />
          </mxGeometry>
        </mxCell>
        <mxCell id="8ktQpaHQvq93Z4VPpIjw-19" value="" style="endArrow=none;html=1;rounded=0;exitX=1;exitY=0.5;exitDx=0;exitDy=0;entryX=0.107;entryY=0.047;entryDx=0;entryDy=0;entryPerimeter=0;" parent="1" source="8ktQpaHQvq93Z4VPpIjw-17" target="4PiyHeSA2Cq_FkqWzUte-66" edge="1">
          <mxGeometry relative="1" as="geometry">
            <mxPoint x="980" y="320" as="sourcePoint" />
            <mxPoint x="1080" y="470" as="targetPoint" />
            <Array as="points">
              <mxPoint x="1051" y="210" />
            </Array>
          </mxGeometry>
        </mxCell>
        <mxCell id="8ktQpaHQvq93Z4VPpIjw-20" value="1" style="text;strokeColor=none;fillColor=none;spacingLeft=4;spacingRight=4;overflow=hidden;rotatable=0;points=[[0,0.5],[1,0.5]];portConstraint=eastwest;fontSize=12;whiteSpace=wrap;html=1;" parent="1" vertex="1">
          <mxGeometry x="1100" y="520" width="20" height="25" as="geometry" />
        </mxCell>
        <mxCell id="8ktQpaHQvq93Z4VPpIjw-21" value="Vehicle" style="whiteSpace=wrap;html=1;align=center;" parent="1" vertex="1">
          <mxGeometry x="658" y="825" width="100" height="40" as="geometry" />
        </mxCell>
        <mxCell id="8ktQpaHQvq93Z4VPpIjw-22" value="register" style="shape=rhombus;perimeter=rhombusPerimeter;whiteSpace=wrap;html=1;align=center;" parent="1" vertex="1">
          <mxGeometry x="860" y="820" width="100" height="50" as="geometry" />
        </mxCell>
        <mxCell id="8ktQpaHQvq93Z4VPpIjw-23" value="" style="endArrow=none;html=1;rounded=0;exitX=1;exitY=0.5;exitDx=0;exitDy=0;entryX=0;entryY=0.5;entryDx=0;entryDy=0;" parent="1" source="8ktQpaHQvq93Z4VPpIjw-21" target="8ktQpaHQvq93Z4VPpIjw-22" edge="1">
          <mxGeometry relative="1" as="geometry">
            <mxPoint x="800" y="880" as="sourcePoint" />
            <mxPoint x="960" y="880" as="targetPoint" />
          </mxGeometry>
        </mxCell>
        <mxCell id="8ktQpaHQvq93Z4VPpIjw-24" value="" style="endArrow=none;html=1;rounded=0;exitX=1;exitY=0.5;exitDx=0;exitDy=0;entryX=0.25;entryY=1;entryDx=0;entryDy=0;" parent="1" source="8ktQpaHQvq93Z4VPpIjw-22" target="4PiyHeSA2Cq_FkqWzUte-66" edge="1">
          <mxGeometry relative="1" as="geometry">
            <mxPoint x="970" y="880" as="sourcePoint" />
            <mxPoint x="1130" y="880" as="targetPoint" />
            <Array as="points">
              <mxPoint x="1065" y="845" />
            </Array>
          </mxGeometry>
        </mxCell>
        <mxCell id="8ktQpaHQvq93Z4VPpIjw-25" value="1" style="text;strokeColor=none;fillColor=none;spacingLeft=4;spacingRight=4;overflow=hidden;rotatable=0;points=[[0,0.5],[1,0.5]];portConstraint=eastwest;fontSize=12;whiteSpace=wrap;html=1;" parent="1" vertex="1">
          <mxGeometry x="1070" y="520" width="20" height="27.5" as="geometry" />
        </mxCell>
        <mxCell id="8ktQpaHQvq93Z4VPpIjw-26" value="N" style="text;strokeColor=none;fillColor=none;spacingLeft=4;spacingRight=4;overflow=hidden;rotatable=0;points=[[0,0.5],[1,0.5]];portConstraint=eastwest;fontSize=12;whiteSpace=wrap;html=1;" parent="1" vertex="1">
          <mxGeometry x="770" y="815" width="20" height="25" as="geometry" />
        </mxCell>
        <mxCell id="8ktQpaHQvq93Z4VPpIjw-27" value="Driver" style="whiteSpace=wrap;html=1;align=center;" parent="1" vertex="1">
          <mxGeometry x="648" y="1020" width="100" height="40" as="geometry" />
        </mxCell>
        <mxCell id="8ktQpaHQvq93Z4VPpIjw-28" value="" style="endArrow=none;html=1;rounded=0;entryX=1;entryY=0.5;entryDx=0;entryDy=0;" parent="1" target="8ktQpaHQvq93Z4VPpIjw-29" edge="1">
          <mxGeometry relative="1" as="geometry">
            <mxPoint x="1053" y="520" as="sourcePoint" />
            <mxPoint x="1050" y="1040" as="targetPoint" />
            <Array as="points">
              <mxPoint x="1053" y="1040" />
            </Array>
          </mxGeometry>
        </mxCell>
        <mxCell id="8ktQpaHQvq93Z4VPpIjw-29" value="is_national" style="shape=rhombus;perimeter=rhombusPerimeter;whiteSpace=wrap;html=1;align=center;" parent="1" vertex="1">
          <mxGeometry x="870" y="1010" width="100" height="60" as="geometry" />
        </mxCell>
        <mxCell id="8ktQpaHQvq93Z4VPpIjw-30" value="" style="endArrow=none;html=1;rounded=0;exitX=1;exitY=0.5;exitDx=0;exitDy=0;entryX=0;entryY=0.5;entryDx=0;entryDy=0;" parent="1" source="8ktQpaHQvq93Z4VPpIjw-27" target="8ktQpaHQvq93Z4VPpIjw-29" edge="1">
          <mxGeometry relative="1" as="geometry">
            <mxPoint x="890" y="1080" as="sourcePoint" />
            <mxPoint x="1050" y="1080" as="targetPoint" />
          </mxGeometry>
        </mxCell>
        <mxCell id="8ktQpaHQvq93Z4VPpIjw-31" value="1" style="text;strokeColor=none;fillColor=none;spacingLeft=4;spacingRight=4;overflow=hidden;rotatable=0;points=[[0,0.5],[1,0.5]];portConstraint=eastwest;fontSize=12;whiteSpace=wrap;html=1;" parent="1" vertex="1">
          <mxGeometry x="1030" y="518.75" width="20" height="27.5" as="geometry" />
        </mxCell>
        <mxCell id="8ktQpaHQvq93Z4VPpIjw-32" value="N" style="text;strokeColor=none;fillColor=none;spacingLeft=4;spacingRight=4;overflow=hidden;rotatable=0;points=[[0,0.5],[1,0.5]];portConstraint=eastwest;fontSize=12;whiteSpace=wrap;html=1;" parent="1" vertex="1">
          <mxGeometry x="770" y="1010" width="20" height="25" as="geometry" />
        </mxCell>
        <mxCell id="8ktQpaHQvq93Z4VPpIjw-34" value="solve" style="shape=rhombus;perimeter=rhombusPerimeter;whiteSpace=wrap;html=1;align=center;" parent="1" vertex="1">
          <mxGeometry x="315" y="350" width="90" height="70" as="geometry" />
        </mxCell>
        <mxCell id="8ktQpaHQvq93Z4VPpIjw-35" value="" style="endArrow=none;html=1;rounded=0;exitX=0.5;exitY=1;exitDx=0;exitDy=0;entryX=0.5;entryY=0;entryDx=0;entryDy=0;" parent="1" source="8ktQpaHQvq93Z4VPpIjw-34" target="4PiyHeSA2Cq_FkqWzUte-1" edge="1">
          <mxGeometry relative="1" as="geometry">
            <mxPoint x="310" y="510" as="sourcePoint" />
            <mxPoint x="470" y="510" as="targetPoint" />
          </mxGeometry>
        </mxCell>
        <mxCell id="8ktQpaHQvq93Z4VPpIjw-36" value="" style="endArrow=none;html=1;rounded=0;exitX=0.5;exitY=1;exitDx=0;exitDy=0;entryX=0.5;entryY=0;entryDx=0;entryDy=0;" parent="1" source="8ktQpaHQvq93Z4VPpIjw-1" target="8ktQpaHQvq93Z4VPpIjw-34" edge="1">
          <mxGeometry relative="1" as="geometry">
            <mxPoint x="430" y="310" as="sourcePoint" />
            <mxPoint x="590" y="310" as="targetPoint" />
          </mxGeometry>
        </mxCell>
        <mxCell id="8ktQpaHQvq93Z4VPpIjw-37" value="1&lt;div&gt;&lt;br&gt;&lt;/div&gt;" style="text;strokeColor=none;fillColor=none;spacingLeft=4;spacingRight=4;overflow=hidden;rotatable=0;points=[[0,0.5],[1,0.5]];portConstraint=eastwest;fontSize=12;whiteSpace=wrap;html=1;" parent="1" vertex="1">
          <mxGeometry x="338" y="290" width="20" height="25" as="geometry" />
        </mxCell>
        <mxCell id="8ktQpaHQvq93Z4VPpIjw-38" value="N" style="text;strokeColor=none;fillColor=none;spacingLeft=4;spacingRight=4;overflow=hidden;rotatable=0;points=[[0,0.5],[1,0.5]];portConstraint=eastwest;fontSize=12;whiteSpace=wrap;html=1;" parent="1" vertex="1">
          <mxGeometry x="340" y="442.5" width="20" height="25" as="geometry" />
        </mxCell>
        <mxCell id="8ktQpaHQvq93Z4VPpIjw-39" value="apply" style="shape=rhombus;perimeter=rhombusPerimeter;whiteSpace=wrap;html=1;align=center;" parent="1" vertex="1">
          <mxGeometry x="317.5" y="600" width="95" height="55" as="geometry" />
        </mxCell>
        <mxCell id="8ktQpaHQvq93Z4VPpIjw-40" value="" style="endArrow=none;html=1;rounded=0;exitX=0.5;exitY=1;exitDx=0;exitDy=0;entryX=0.5;entryY=0;entryDx=0;entryDy=0;" parent="1" source="8ktQpaHQvq93Z4VPpIjw-39" target="8ktQpaHQvq93Z4VPpIjw-5" edge="1">
          <mxGeometry relative="1" as="geometry">
            <mxPoint x="330" y="710" as="sourcePoint" />
            <mxPoint x="490" y="710" as="targetPoint" />
          </mxGeometry>
        </mxCell>
        <mxCell id="8ktQpaHQvq93Z4VPpIjw-41" value="" style="endArrow=none;html=1;rounded=0;exitX=0.547;exitY=1.018;exitDx=0;exitDy=0;entryX=0.5;entryY=0;entryDx=0;entryDy=0;exitPerimeter=0;" parent="1" source="4PiyHeSA2Cq_FkqWzUte-1" target="8ktQpaHQvq93Z4VPpIjw-39" edge="1">
          <mxGeometry relative="1" as="geometry">
            <mxPoint x="300" y="570" as="sourcePoint" />
            <mxPoint x="460" y="570" as="targetPoint" />
          </mxGeometry>
        </mxCell>
        <mxCell id="8ktQpaHQvq93Z4VPpIjw-42" value="1&lt;div&gt;&lt;br&gt;&lt;/div&gt;" style="text;strokeColor=none;fillColor=none;spacingLeft=4;spacingRight=4;overflow=hidden;rotatable=0;points=[[0,0.5],[1,0.5]];portConstraint=eastwest;fontSize=12;whiteSpace=wrap;html=1;" parent="1" vertex="1">
          <mxGeometry x="370" y="690" width="30" height="25" as="geometry" />
        </mxCell>
        <mxCell id="8ktQpaHQvq93Z4VPpIjw-43" value="N" style="text;strokeColor=none;fillColor=none;spacingLeft=4;spacingRight=4;overflow=hidden;rotatable=0;points=[[0,0.5],[1,0.5]];portConstraint=eastwest;fontSize=12;whiteSpace=wrap;html=1;" parent="1" vertex="1">
          <mxGeometry x="340" y="518.75" width="20" height="25" as="geometry" />
        </mxCell>
        <mxCell id="8ktQpaHQvq93Z4VPpIjw-44" value="sở hữu" style="shape=rhombus;perimeter=rhombusPerimeter;whiteSpace=wrap;html=1;align=center;" parent="1" vertex="1">
          <mxGeometry x="875" y="912.5" width="90" height="60" as="geometry" />
        </mxCell>
        <mxCell id="8ktQpaHQvq93Z4VPpIjw-45" value="" style="endArrow=none;html=1;rounded=0;exitX=0.75;exitY=1;exitDx=0;exitDy=0;entryX=0;entryY=0.5;entryDx=0;entryDy=0;" parent="1" source="8ktQpaHQvq93Z4VPpIjw-21" target="8ktQpaHQvq93Z4VPpIjw-44" edge="1">
          <mxGeometry relative="1" as="geometry">
            <mxPoint x="760" y="960" as="sourcePoint" />
            <mxPoint x="880" y="940" as="targetPoint" />
            <Array as="points">
              <mxPoint x="733" y="940" />
            </Array>
          </mxGeometry>
        </mxCell>
        <mxCell id="8ktQpaHQvq93Z4VPpIjw-46" value="" style="endArrow=none;html=1;rounded=0;exitX=1;exitY=0.5;exitDx=0;exitDy=0;entryX=0.5;entryY=1;entryDx=0;entryDy=0;" parent="1" source="8ktQpaHQvq93Z4VPpIjw-44" target="8ktQpaHQvq93Z4VPpIjw-13" edge="1">
          <mxGeometry relative="1" as="geometry">
            <mxPoint x="1020" y="965" as="sourcePoint" />
            <mxPoint x="1180" y="965" as="targetPoint" />
            <Array as="points">
              <mxPoint x="1285" y="943" />
            </Array>
          </mxGeometry>
        </mxCell>
        <mxCell id="8ktQpaHQvq93Z4VPpIjw-47" value="N" style="text;strokeColor=none;fillColor=none;spacingLeft=4;spacingRight=4;overflow=hidden;rotatable=0;points=[[0,0.5],[1,0.5]];portConstraint=eastwest;fontSize=12;whiteSpace=wrap;html=1;" parent="1" vertex="1">
          <mxGeometry x="1200" y="850" width="20" height="30" as="geometry" />
        </mxCell>
        <mxCell id="8ktQpaHQvq93Z4VPpIjw-48" value="N" style="text;strokeColor=none;fillColor=none;spacingLeft=4;spacingRight=4;overflow=hidden;rotatable=0;points=[[0,0.5],[1,0.5]];portConstraint=eastwest;fontSize=12;whiteSpace=wrap;html=1;" parent="1" vertex="1">
          <mxGeometry x="738" y="912.5" width="20" height="25" as="geometry" />
        </mxCell>
        <mxCell id="8ktQpaHQvq93Z4VPpIjw-49" value="1" style="text;strokeColor=none;fillColor=none;spacingLeft=4;spacingRight=4;overflow=hidden;rotatable=0;points=[[0,0.5],[1,0.5]];portConstraint=eastwest;fontSize=12;whiteSpace=wrap;html=1;" parent="1" vertex="1">
          <mxGeometry x="1320" y="905" width="20" height="27.5" as="geometry" />
        </mxCell>
        <mxCell id="8ktQpaHQvq93Z4VPpIjw-50" value="" style="endArrow=none;html=1;rounded=0;entryX=0;entryY=0.5;entryDx=0;entryDy=0;exitX=0.5;exitY=0;exitDx=0;exitDy=0;" parent="1" source="8ktQpaHQvq93Z4VPpIjw-51" target="8ktQpaHQvq93Z4VPpIjw-1" edge="1">
          <mxGeometry relative="1" as="geometry">
            <mxPoint x="90" y="710" as="sourcePoint" />
            <mxPoint x="290" y="290" as="targetPoint" />
            <Array as="points">
              <mxPoint x="-200" y="270" />
            </Array>
          </mxGeometry>
        </mxCell>
        <mxCell id="8ktQpaHQvq93Z4VPpIjw-51" value="contain" style="shape=rhombus;perimeter=rhombusPerimeter;whiteSpace=wrap;html=1;align=center;" parent="1" vertex="1">
          <mxGeometry x="-260" y="700" width="120" height="60" as="geometry" />
        </mxCell>
        <mxCell id="8ktQpaHQvq93Z4VPpIjw-52" value="" style="endArrow=none;html=1;rounded=0;exitX=0.5;exitY=1;exitDx=0;exitDy=0;entryX=-0.014;entryY=0.634;entryDx=0;entryDy=0;entryPerimeter=0;" parent="1" source="8ktQpaHQvq93Z4VPpIjw-51" target="8ktQpaHQvq93Z4VPpIjw-21" edge="1">
          <mxGeometry relative="1" as="geometry">
            <mxPoint x="90" y="830" as="sourcePoint" />
            <mxPoint x="240" y="900" as="targetPoint" />
            <Array as="points">
              <mxPoint x="-200" y="845" />
            </Array>
          </mxGeometry>
        </mxCell>
        <mxCell id="8ktQpaHQvq93Z4VPpIjw-53" value="1&lt;div&gt;&lt;br&gt;&lt;/div&gt;" style="text;strokeColor=none;fillColor=none;spacingLeft=4;spacingRight=4;overflow=hidden;rotatable=0;points=[[0,0.5],[1,0.5]];portConstraint=eastwest;fontSize=12;whiteSpace=wrap;html=1;" parent="1" vertex="1">
          <mxGeometry x="288" y="270" width="20" height="30" as="geometry" />
        </mxCell>
        <mxCell id="8ktQpaHQvq93Z4VPpIjw-54" value="N" style="text;strokeColor=none;fillColor=none;spacingLeft=4;spacingRight=4;overflow=hidden;rotatable=0;points=[[0,0.5],[1,0.5]];portConstraint=eastwest;fontSize=12;whiteSpace=wrap;html=1;" parent="1" vertex="1">
          <mxGeometry x="630" y="860" width="20" height="25" as="geometry" />
        </mxCell>
        <mxCell id="8ktQpaHQvq93Z4VPpIjw-55" value="of" style="shape=rhombus;perimeter=rhombusPerimeter;whiteSpace=wrap;html=1;align=center;" parent="1" vertex="1">
          <mxGeometry x="660" y="940" width="70" height="50" as="geometry" />
        </mxCell>
        <mxCell id="8ktQpaHQvq93Z4VPpIjw-56" value="" style="endArrow=none;html=1;rounded=0;exitX=0.386;exitY=0.962;exitDx=0;exitDy=0;exitPerimeter=0;" parent="1" source="8ktQpaHQvq93Z4VPpIjw-21" target="8ktQpaHQvq93Z4VPpIjw-55" edge="1">
          <mxGeometry relative="1" as="geometry">
            <mxPoint x="650" y="910" as="sourcePoint" />
            <mxPoint x="810" y="910" as="targetPoint" />
          </mxGeometry>
        </mxCell>
        <mxCell id="8ktQpaHQvq93Z4VPpIjw-57" value="" style="endArrow=none;html=1;rounded=0;exitX=0.5;exitY=1;exitDx=0;exitDy=0;" parent="1" source="8ktQpaHQvq93Z4VPpIjw-55" edge="1">
          <mxGeometry relative="1" as="geometry">
            <mxPoint x="680" y="1010" as="sourcePoint" />
            <mxPoint x="695" y="1020" as="targetPoint" />
          </mxGeometry>
        </mxCell>
        <mxCell id="8ktQpaHQvq93Z4VPpIjw-58" value="1" style="text;strokeColor=none;fillColor=none;spacingLeft=4;spacingRight=4;overflow=hidden;rotatable=0;points=[[0,0.5],[1,0.5]];portConstraint=eastwest;fontSize=12;whiteSpace=wrap;html=1;" parent="1" vertex="1">
          <mxGeometry x="668" y="870" width="20" height="25" as="geometry" />
        </mxCell>
        <mxCell id="8ktQpaHQvq93Z4VPpIjw-59" value="N" style="text;strokeColor=none;fillColor=none;spacingLeft=4;spacingRight=4;overflow=hidden;rotatable=0;points=[[0,0.5],[1,0.5]];portConstraint=eastwest;fontSize=12;whiteSpace=wrap;html=1;" parent="1" vertex="1">
          <mxGeometry x="700" y="995" width="20" height="25" as="geometry" />
        </mxCell>
        <mxCell id="8ktQpaHQvq93Z4VPpIjw-60" value="Warehouse" style="whiteSpace=wrap;html=1;align=center;" parent="1" vertex="1">
          <mxGeometry x="310" y="50" width="100" height="40" as="geometry" />
        </mxCell>
        <mxCell id="8ktQpaHQvq93Z4VPpIjw-61" value="has" style="shape=rhombus;perimeter=rhombusPerimeter;whiteSpace=wrap;html=1;align=center;" parent="1" vertex="1">
          <mxGeometry x="320" y="150" width="60" height="40" as="geometry" />
        </mxCell>
        <mxCell id="8ktQpaHQvq93Z4VPpIjw-62" value="" style="endArrow=none;html=1;rounded=0;exitX=0.5;exitY=1;exitDx=0;exitDy=0;entryX=0.4;entryY=0;entryDx=0;entryDy=0;entryPerimeter=0;" parent="1" source="8ktQpaHQvq93Z4VPpIjw-61" target="8ktQpaHQvq93Z4VPpIjw-1" edge="1">
          <mxGeometry relative="1" as="geometry">
            <mxPoint x="330" y="200" as="sourcePoint" />
            <mxPoint x="490" y="200" as="targetPoint" />
          </mxGeometry>
        </mxCell>
        <mxCell id="8ktQpaHQvq93Z4VPpIjw-63" value="" style="endArrow=none;html=1;rounded=0;entryX=0.5;entryY=0;entryDx=0;entryDy=0;" parent="1" target="8ktQpaHQvq93Z4VPpIjw-61" edge="1">
          <mxGeometry relative="1" as="geometry">
            <mxPoint x="351" y="90" as="sourcePoint" />
            <mxPoint x="610" y="120" as="targetPoint" />
          </mxGeometry>
        </mxCell>
        <mxCell id="TXWCQ0G7Xnb6KMwIIaCa-1" value="1&lt;div&gt;&lt;br&gt;&lt;/div&gt;" style="text;strokeColor=none;fillColor=none;spacingLeft=4;spacingRight=4;overflow=hidden;rotatable=0;points=[[0,0.5],[1,0.5]];portConstraint=eastwest;fontSize=12;whiteSpace=wrap;html=1;" parent="1" vertex="1">
          <mxGeometry x="358" y="215" width="30" height="25" as="geometry" />
        </mxCell>
        <mxCell id="TXWCQ0G7Xnb6KMwIIaCa-2" value="N" style="text;strokeColor=none;fillColor=none;spacingLeft=4;spacingRight=4;overflow=hidden;rotatable=0;points=[[0,0.5],[1,0.5]];portConstraint=eastwest;fontSize=12;whiteSpace=wrap;html=1;" parent="1" vertex="1">
          <mxGeometry x="363" y="100" width="20" height="25" as="geometry" />
        </mxCell>
        <mxCell id="TXWCQ0G7Xnb6KMwIIaCa-3" value="Shipment_Details" style="whiteSpace=wrap;html=1;align=center;" parent="1" vertex="1">
          <mxGeometry x="-90" y="480" width="100" height="40" as="geometry" />
        </mxCell>
        <mxCell id="TXWCQ0G7Xnb6KMwIIaCa-4" value="has" style="shape=rhombus;perimeter=rhombusPerimeter;whiteSpace=wrap;html=1;align=center;" parent="1" vertex="1">
          <mxGeometry x="96" y="474.5" width="93" height="51" as="geometry" />
        </mxCell>
        <mxCell id="TXWCQ0G7Xnb6KMwIIaCa-5" value="" style="endArrow=none;html=1;rounded=0;exitX=1;exitY=0.5;exitDx=0;exitDy=0;entryX=0;entryY=0.5;entryDx=0;entryDy=0;" parent="1" source="TXWCQ0G7Xnb6KMwIIaCa-4" target="4PiyHeSA2Cq_FkqWzUte-1" edge="1">
          <mxGeometry relative="1" as="geometry">
            <mxPoint x="180" y="520" as="sourcePoint" />
            <mxPoint x="340" y="520" as="targetPoint" />
          </mxGeometry>
        </mxCell>
        <mxCell id="TXWCQ0G7Xnb6KMwIIaCa-6" value="" style="endArrow=none;html=1;rounded=0;exitX=1;exitY=0.5;exitDx=0;exitDy=0;entryX=0;entryY=0.5;entryDx=0;entryDy=0;" parent="1" source="TXWCQ0G7Xnb6KMwIIaCa-3" target="TXWCQ0G7Xnb6KMwIIaCa-4" edge="1">
          <mxGeometry relative="1" as="geometry">
            <mxPoint x="40" y="530" as="sourcePoint" />
            <mxPoint x="200" y="530" as="targetPoint" />
          </mxGeometry>
        </mxCell>
        <mxCell id="TXWCQ0G7Xnb6KMwIIaCa-7" value="1" style="text;strokeColor=none;fillColor=none;spacingLeft=4;spacingRight=4;overflow=hidden;rotatable=0;points=[[0,0.5],[1,0.5]];portConstraint=eastwest;fontSize=12;whiteSpace=wrap;html=1;" parent="1" vertex="1">
          <mxGeometry x="240" y="468" width="40" height="30" as="geometry" />
        </mxCell>
        <mxCell id="TXWCQ0G7Xnb6KMwIIaCa-8" value="N" style="text;strokeColor=none;fillColor=none;spacingLeft=4;spacingRight=4;overflow=hidden;rotatable=0;points=[[0,0.5],[1,0.5]];portConstraint=eastwest;fontSize=12;whiteSpace=wrap;html=1;" parent="1" vertex="1">
          <mxGeometry x="20" y="473" width="40" height="30" as="geometry" />
        </mxCell>
        <mxCell id="TXWCQ0G7Xnb6KMwIIaCa-9" style="edgeStyle=orthogonalEdgeStyle;rounded=0;orthogonalLoop=1;jettySize=auto;html=1;exitX=0.5;exitY=1;exitDx=0;exitDy=0;" parent="1" source="TXWCQ0G7Xnb6KMwIIaCa-3" target="TXWCQ0G7Xnb6KMwIIaCa-3" edge="1">
          <mxGeometry relative="1" as="geometry" />
        </mxCell>
        <mxCell id="TXWCQ0G7Xnb6KMwIIaCa-11" value="" style="endArrow=none;html=1;rounded=0;exitX=0.5;exitY=1;exitDx=0;exitDy=0;entryX=0.5;entryY=0;entryDx=0;entryDy=0;" parent="1" source="TXWCQ0G7Xnb6KMwIIaCa-3" target="TXWCQ0G7Xnb6KMwIIaCa-12" edge="1">
          <mxGeometry relative="1" as="geometry">
            <mxPoint x="30" y="710" as="sourcePoint" />
            <mxPoint x="-40" y="720" as="targetPoint" />
          </mxGeometry>
        </mxCell>
        <mxCell id="TXWCQ0G7Xnb6KMwIIaCa-12" value="used" style="shape=rhombus;perimeter=rhombusPerimeter;whiteSpace=wrap;html=1;align=center;" parent="1" vertex="1">
          <mxGeometry x="-82.5" y="720" width="85" height="60" as="geometry" />
        </mxCell>
        <mxCell id="TXWCQ0G7Xnb6KMwIIaCa-13" value="" style="endArrow=none;html=1;rounded=0;exitX=0.5;exitY=1;exitDx=0;exitDy=0;entryX=-0.012;entryY=0.379;entryDx=0;entryDy=0;entryPerimeter=0;" parent="1" source="TXWCQ0G7Xnb6KMwIIaCa-12" target="8ktQpaHQvq93Z4VPpIjw-21" edge="1">
          <mxGeometry relative="1" as="geometry">
            <mxPoint x="10" y="810" as="sourcePoint" />
            <mxPoint x="170" y="810" as="targetPoint" />
            <Array as="points">
              <mxPoint x="-40" y="840" />
            </Array>
          </mxGeometry>
        </mxCell>
        <mxCell id="TXWCQ0G7Xnb6KMwIIaCa-14" value="1" style="text;strokeColor=none;fillColor=none;spacingLeft=4;spacingRight=4;overflow=hidden;rotatable=0;points=[[0,0.5],[1,0.5]];portConstraint=eastwest;fontSize=12;whiteSpace=wrap;html=1;" parent="1" vertex="1">
          <mxGeometry x="628" y="810" width="20" height="25" as="geometry" />
        </mxCell>
        <mxCell id="TXWCQ0G7Xnb6KMwIIaCa-15" value="N" style="text;strokeColor=none;fillColor=none;spacingLeft=4;spacingRight=4;overflow=hidden;rotatable=0;points=[[0,0.5],[1,0.5]];portConstraint=eastwest;fontSize=12;whiteSpace=wrap;html=1;" parent="1" vertex="1">
          <mxGeometry x="-30" y="525.5" width="30" height="34.5" as="geometry" />
        </mxCell>
        <mxCell id="TXWCQ0G7Xnb6KMwIIaCa-16" value="Route" style="whiteSpace=wrap;html=1;align=center;" parent="1" vertex="1">
          <mxGeometry x="-90" y="180" width="100" height="40" as="geometry" />
        </mxCell>
        <mxCell id="TXWCQ0G7Xnb6KMwIIaCa-17" value="use" style="shape=rhombus;perimeter=rhombusPerimeter;whiteSpace=wrap;html=1;align=center;" parent="1" vertex="1">
          <mxGeometry x="-95" y="320" width="110" height="60" as="geometry" />
        </mxCell>
        <mxCell id="TXWCQ0G7Xnb6KMwIIaCa-18" value="" style="endArrow=none;html=1;rounded=0;exitX=0.5;exitY=1;exitDx=0;exitDy=0;entryX=0.5;entryY=0;entryDx=0;entryDy=0;" parent="1" source="TXWCQ0G7Xnb6KMwIIaCa-17" target="TXWCQ0G7Xnb6KMwIIaCa-3" edge="1">
          <mxGeometry relative="1" as="geometry">
            <mxPoint x="-70" y="430" as="sourcePoint" />
            <mxPoint x="90" y="430" as="targetPoint" />
          </mxGeometry>
        </mxCell>
        <mxCell id="TXWCQ0G7Xnb6KMwIIaCa-19" value="" style="endArrow=none;html=1;rounded=0;exitX=0.5;exitY=1;exitDx=0;exitDy=0;entryX=0.5;entryY=0;entryDx=0;entryDy=0;" parent="1" source="TXWCQ0G7Xnb6KMwIIaCa-16" target="TXWCQ0G7Xnb6KMwIIaCa-17" edge="1">
          <mxGeometry relative="1" as="geometry">
            <mxPoint x="-50" y="300" as="sourcePoint" />
            <mxPoint x="110" y="300" as="targetPoint" />
          </mxGeometry>
        </mxCell>
        <mxCell id="TXWCQ0G7Xnb6KMwIIaCa-22" value="N" style="text;strokeColor=none;fillColor=none;spacingLeft=4;spacingRight=4;overflow=hidden;rotatable=0;points=[[0,0.5],[1,0.5]];portConstraint=eastwest;fontSize=12;whiteSpace=wrap;html=1;" parent="1" vertex="1">
          <mxGeometry x="-30" y="445" width="40" height="30" as="geometry" />
        </mxCell>
        <mxCell id="TXWCQ0G7Xnb6KMwIIaCa-23" value="1" style="text;strokeColor=none;fillColor=none;spacingLeft=4;spacingRight=4;overflow=hidden;rotatable=0;points=[[0,0.5],[1,0.5]];portConstraint=eastwest;fontSize=12;whiteSpace=wrap;html=1;" parent="1" vertex="1">
          <mxGeometry x="-37.5" y="220" width="40" height="30" as="geometry" />
        </mxCell>
        <mxCell id="TXWCQ0G7Xnb6KMwIIaCa-24" value="Shipping Fee" style="whiteSpace=wrap;html=1;align=center;" parent="1" vertex="1">
          <mxGeometry x="70" y="50" width="100" height="40" as="geometry" />
        </mxCell>
        <mxCell id="TXWCQ0G7Xnb6KMwIIaCa-25" value="" style="endArrow=none;html=1;rounded=0;exitX=1;exitY=0.5;exitDx=0;exitDy=0;entryX=0.5;entryY=1;entryDx=0;entryDy=0;" parent="1" source="TXWCQ0G7Xnb6KMwIIaCa-16" target="TXWCQ0G7Xnb6KMwIIaCa-26" edge="1">
          <mxGeometry relative="1" as="geometry">
            <mxPoint x="30" y="200" as="sourcePoint" />
            <mxPoint x="140" y="200" as="targetPoint" />
            <Array as="points">
              <mxPoint x="120" y="200" />
            </Array>
          </mxGeometry>
        </mxCell>
        <mxCell id="TXWCQ0G7Xnb6KMwIIaCa-26" value="has" style="shape=rhombus;perimeter=rhombusPerimeter;whiteSpace=wrap;html=1;align=center;" parent="1" vertex="1">
          <mxGeometry x="81" y="140" width="78" height="40" as="geometry" />
        </mxCell>
        <mxCell id="TXWCQ0G7Xnb6KMwIIaCa-27" value="1" style="text;strokeColor=none;fillColor=none;spacingLeft=4;spacingRight=4;overflow=hidden;rotatable=0;points=[[0,0.5],[1,0.5]];portConstraint=eastwest;fontSize=12;whiteSpace=wrap;html=1;" parent="1" vertex="1">
          <mxGeometry x="10" y="170" width="40" height="30" as="geometry" />
        </mxCell>
        <mxCell id="TXWCQ0G7Xnb6KMwIIaCa-28" value="" style="endArrow=none;html=1;rounded=0;exitX=0.5;exitY=1;exitDx=0;exitDy=0;entryX=0.5;entryY=0;entryDx=0;entryDy=0;" parent="1" source="TXWCQ0G7Xnb6KMwIIaCa-24" target="TXWCQ0G7Xnb6KMwIIaCa-26" edge="1">
          <mxGeometry relative="1" as="geometry">
            <mxPoint x="60" y="100" as="sourcePoint" />
            <mxPoint x="220" y="100" as="targetPoint" />
          </mxGeometry>
        </mxCell>
        <mxCell id="TXWCQ0G7Xnb6KMwIIaCa-29" value="N" style="text;strokeColor=none;fillColor=none;spacingLeft=4;spacingRight=4;overflow=hidden;rotatable=0;points=[[0,0.5],[1,0.5]];portConstraint=eastwest;fontSize=12;whiteSpace=wrap;html=1;" parent="1" vertex="1">
          <mxGeometry x="132.5" y="100" width="20" height="25" as="geometry" />
        </mxCell>
        <mxCell id="TXWCQ0G7Xnb6KMwIIaCa-30" value="Invoice" style="whiteSpace=wrap;html=1;align=center;" parent="1" vertex="1">
          <mxGeometry x="530" y="50" width="100" height="40" as="geometry" />
        </mxCell>
        <mxCell id="TXWCQ0G7Xnb6KMwIIaCa-31" value="has" style="shape=rhombus;perimeter=rhombusPerimeter;whiteSpace=wrap;html=1;align=center;" parent="1" vertex="1">
          <mxGeometry x="530" y="185" width="100" height="50" as="geometry" />
        </mxCell>
        <mxCell id="TXWCQ0G7Xnb6KMwIIaCa-32" value="" style="endArrow=none;html=1;rounded=0;exitX=1;exitY=0.25;exitDx=0;exitDy=0;entryX=0.5;entryY=1;entryDx=0;entryDy=0;" parent="1" source="4PiyHeSA2Cq_FkqWzUte-1" target="TXWCQ0G7Xnb6KMwIIaCa-31" edge="1">
          <mxGeometry relative="1" as="geometry">
            <mxPoint x="500" y="450" as="sourcePoint" />
            <mxPoint x="660" y="450" as="targetPoint" />
            <Array as="points">
              <mxPoint x="580" y="490" />
            </Array>
          </mxGeometry>
        </mxCell>
        <mxCell id="TXWCQ0G7Xnb6KMwIIaCa-33" value="" style="endArrow=none;html=1;rounded=0;exitX=0.5;exitY=1;exitDx=0;exitDy=0;entryX=0.5;entryY=0;entryDx=0;entryDy=0;" parent="1" source="TXWCQ0G7Xnb6KMwIIaCa-30" target="TXWCQ0G7Xnb6KMwIIaCa-31" edge="1">
          <mxGeometry relative="1" as="geometry">
            <mxPoint x="520" y="120" as="sourcePoint" />
            <mxPoint x="680" y="120" as="targetPoint" />
          </mxGeometry>
        </mxCell>
        <mxCell id="TXWCQ0G7Xnb6KMwIIaCa-34" value="used" style="shape=rhombus;perimeter=rhombusPerimeter;whiteSpace=wrap;html=1;align=center;" parent="1" vertex="1">
          <mxGeometry x="712" y="45" width="72" height="50" as="geometry" />
        </mxCell>
        <mxCell id="TXWCQ0G7Xnb6KMwIIaCa-35" value="" style="endArrow=none;html=1;rounded=0;exitX=1;exitY=0.5;exitDx=0;exitDy=0;entryX=0;entryY=0.5;entryDx=0;entryDy=0;" parent="1" source="TXWCQ0G7Xnb6KMwIIaCa-30" target="TXWCQ0G7Xnb6KMwIIaCa-34" edge="1">
          <mxGeometry relative="1" as="geometry">
            <mxPoint x="630" y="130" as="sourcePoint" />
            <mxPoint x="790" y="130" as="targetPoint" />
          </mxGeometry>
        </mxCell>
        <mxCell id="TXWCQ0G7Xnb6KMwIIaCa-36" value="" style="endArrow=none;html=1;rounded=0;exitX=1;exitY=0.5;exitDx=0;exitDy=0;entryX=0;entryY=0.5;entryDx=0;entryDy=0;" parent="1" source="TXWCQ0G7Xnb6KMwIIaCa-34" target="8ktQpaHQvq93Z4VPpIjw-16" edge="1">
          <mxGeometry relative="1" as="geometry">
            <mxPoint x="730" y="130" as="sourcePoint" />
            <mxPoint x="890" y="130" as="targetPoint" />
          </mxGeometry>
        </mxCell>
        <mxCell id="TXWCQ0G7Xnb6KMwIIaCa-37" value="1&lt;div&gt;&lt;br&gt;&lt;/div&gt;" style="text;strokeColor=none;fillColor=none;spacingLeft=4;spacingRight=4;overflow=hidden;rotatable=0;points=[[0,0.5],[1,0.5]];portConstraint=eastwest;fontSize=12;whiteSpace=wrap;html=1;" parent="1" vertex="1">
          <mxGeometry x="835" y="45" width="20" height="25" as="geometry" />
        </mxCell>
        <mxCell id="TXWCQ0G7Xnb6KMwIIaCa-38" value="1" style="text;strokeColor=none;fillColor=none;spacingLeft=4;spacingRight=4;overflow=hidden;rotatable=0;points=[[0,0.5],[1,0.5]];portConstraint=eastwest;fontSize=12;whiteSpace=wrap;html=1;" parent="1" vertex="1">
          <mxGeometry x="174" y="45" width="20" height="25" as="geometry" />
        </mxCell>
        <mxCell id="TXWCQ0G7Xnb6KMwIIaCa-39" value="N" style="text;strokeColor=none;fillColor=none;spacingLeft=4;spacingRight=4;overflow=hidden;rotatable=0;points=[[0,0.5],[1,0.5]];portConstraint=eastwest;fontSize=12;whiteSpace=wrap;html=1;" parent="1" vertex="1">
          <mxGeometry x="630" y="45" width="20" height="25" as="geometry" />
        </mxCell>
        <mxCell id="TXWCQ0G7Xnb6KMwIIaCa-40" value="region_id" style="ellipse;whiteSpace=wrap;html=1;align=center;fontStyle=4;" parent="1" vertex="1">
          <mxGeometry x="1330" y="390" width="100" height="40" as="geometry" />
        </mxCell>
        <mxCell id="TXWCQ0G7Xnb6KMwIIaCa-41" value="region_name" style="ellipse;whiteSpace=wrap;html=1;align=center;" parent="1" vertex="1">
          <mxGeometry x="1330" y="570" width="100" height="40" as="geometry" />
        </mxCell>
        <mxCell id="TXWCQ0G7Xnb6KMwIIaCa-42" value="" style="endArrow=none;html=1;rounded=0;exitX=0.5;exitY=1;exitDx=0;exitDy=0;entryX=0.5;entryY=0;entryDx=0;entryDy=0;" parent="1" source="TXWCQ0G7Xnb6KMwIIaCa-40" target="4PiyHeSA2Cq_FkqWzUte-106" edge="1">
          <mxGeometry relative="1" as="geometry">
            <mxPoint x="1400" y="430" as="sourcePoint" />
            <mxPoint x="1560" y="430" as="targetPoint" />
          </mxGeometry>
        </mxCell>
        <mxCell id="TXWCQ0G7Xnb6KMwIIaCa-43" value="" style="endArrow=none;html=1;rounded=0;exitX=0.5;exitY=1;exitDx=0;exitDy=0;" parent="1" source="4PiyHeSA2Cq_FkqWzUte-106" target="TXWCQ0G7Xnb6KMwIIaCa-41" edge="1">
          <mxGeometry relative="1" as="geometry">
            <mxPoint x="1430" y="560" as="sourcePoint" />
            <mxPoint x="1590" y="560" as="targetPoint" />
          </mxGeometry>
        </mxCell>
        <mxCell id="TXWCQ0G7Xnb6KMwIIaCa-44" value="" style="endArrow=none;html=1;rounded=0;exitX=1;exitY=0.5;exitDx=0;exitDy=0;entryX=0.5;entryY=0;entryDx=0;entryDy=0;" parent="1" source="TXWCQ0G7Xnb6KMwIIaCa-24" target="TXWCQ0G7Xnb6KMwIIaCa-45" edge="1">
          <mxGeometry relative="1" as="geometry">
            <mxPoint x="400" y="100" as="sourcePoint" />
            <mxPoint x="440" y="70" as="targetPoint" />
            <Array as="points">
              <mxPoint x="240" y="70" />
              <mxPoint x="240" y="20" />
              <mxPoint x="465" y="20" />
            </Array>
          </mxGeometry>
        </mxCell>
        <mxCell id="TXWCQ0G7Xnb6KMwIIaCa-45" value="has" style="shape=rhombus;perimeter=rhombusPerimeter;whiteSpace=wrap;html=1;align=center;" parent="1" vertex="1">
          <mxGeometry x="435" y="50" width="60" height="40" as="geometry" />
        </mxCell>
        <mxCell id="TXWCQ0G7Xnb6KMwIIaCa-46" value="" style="endArrow=none;html=1;rounded=0;exitX=1;exitY=0.5;exitDx=0;exitDy=0;entryX=0;entryY=0.5;entryDx=0;entryDy=0;" parent="1" source="TXWCQ0G7Xnb6KMwIIaCa-45" target="TXWCQ0G7Xnb6KMwIIaCa-30" edge="1">
          <mxGeometry relative="1" as="geometry">
            <mxPoint x="410" y="110" as="sourcePoint" />
            <mxPoint x="570" y="110" as="targetPoint" />
          </mxGeometry>
        </mxCell>
        <mxCell id="TXWCQ0G7Xnb6KMwIIaCa-47" value="1" style="text;strokeColor=none;fillColor=none;spacingLeft=4;spacingRight=4;overflow=hidden;rotatable=0;points=[[0,0.5],[1,0.5]];portConstraint=eastwest;fontSize=12;whiteSpace=wrap;html=1;" parent="1" vertex="1">
          <mxGeometry x="510" y="45" width="20" height="25" as="geometry" />
        </mxCell>
        <mxCell id="TXWCQ0G7Xnb6KMwIIaCa-48" value="country_name" style="ellipse;whiteSpace=wrap;html=1;align=center;" parent="1" vertex="1">
          <mxGeometry x="1150" y="570" width="100" height="40" as="geometry" />
        </mxCell>
        <mxCell id="TXWCQ0G7Xnb6KMwIIaCa-49" value="country_id" style="ellipse;whiteSpace=wrap;html=1;align=center;fontStyle=4;" parent="1" vertex="1">
          <mxGeometry x="920" y="570" width="100" height="40" as="geometry" />
        </mxCell>
        <mxCell id="TXWCQ0G7Xnb6KMwIIaCa-50" value="" style="endArrow=none;html=1;rounded=0;exitX=0.5;exitY=0;exitDx=0;exitDy=0;entryX=0;entryY=0.5;entryDx=0;entryDy=0;" parent="1" source="TXWCQ0G7Xnb6KMwIIaCa-49" target="4PiyHeSA2Cq_FkqWzUte-66" edge="1">
          <mxGeometry relative="1" as="geometry">
            <mxPoint x="810" y="580" as="sourcePoint" />
            <mxPoint x="970" y="580" as="targetPoint" />
          </mxGeometry>
        </mxCell>
        <mxCell id="TXWCQ0G7Xnb6KMwIIaCa-51" value="" style="endArrow=none;html=1;rounded=0;exitX=1;exitY=0.5;exitDx=0;exitDy=0;entryX=0.5;entryY=0;entryDx=0;entryDy=0;" parent="1" source="4PiyHeSA2Cq_FkqWzUte-66" target="TXWCQ0G7Xnb6KMwIIaCa-48" edge="1">
          <mxGeometry relative="1" as="geometry">
            <mxPoint x="1210" y="570" as="sourcePoint" />
            <mxPoint x="1370" y="570" as="targetPoint" />
          </mxGeometry>
        </mxCell>
        <mxCell id="TXWCQ0G7Xnb6KMwIIaCa-52" value="currency_id" style="ellipse;whiteSpace=wrap;html=1;align=center;fontStyle=4;" parent="1" vertex="1">
          <mxGeometry x="820" y="-30" width="100" height="40" as="geometry" />
        </mxCell>
        <mxCell id="TXWCQ0G7Xnb6KMwIIaCa-54" value="exchange_rate" style="ellipse;whiteSpace=wrap;html=1;align=center;" parent="1" vertex="1">
          <mxGeometry x="940" y="125" width="100" height="40" as="geometry" />
        </mxCell>
        <mxCell id="TXWCQ0G7Xnb6KMwIIaCa-55" value="" style="endArrow=none;html=1;rounded=0;exitX=0.5;exitY=0;exitDx=0;exitDy=0;entryX=0.5;entryY=1;entryDx=0;entryDy=0;" parent="1" source="TXWCQ0G7Xnb6KMwIIaCa-54" target="8ktQpaHQvq93Z4VPpIjw-16" edge="1">
          <mxGeometry relative="1" as="geometry">
            <mxPoint x="860" y="130" as="sourcePoint" />
            <mxPoint x="1020" y="130" as="targetPoint" />
          </mxGeometry>
        </mxCell>
        <mxCell id="TXWCQ0G7Xnb6KMwIIaCa-56" value="" style="endArrow=none;html=1;rounded=0;exitX=0.5;exitY=1;exitDx=0;exitDy=0;entryX=0.5;entryY=0;entryDx=0;entryDy=0;" parent="1" source="TXWCQ0G7Xnb6KMwIIaCa-52" target="8ktQpaHQvq93Z4VPpIjw-16" edge="1">
          <mxGeometry relative="1" as="geometry">
            <mxPoint x="850" y="30" as="sourcePoint" />
            <mxPoint x="1010" y="30" as="targetPoint" />
          </mxGeometry>
        </mxCell>
        <mxCell id="TXWCQ0G7Xnb6KMwIIaCa-57" value="last_update" style="ellipse;whiteSpace=wrap;html=1;align=center;" parent="1" vertex="1">
          <mxGeometry x="960" y="-30" width="100" height="40" as="geometry" />
        </mxCell>
        <mxCell id="TXWCQ0G7Xnb6KMwIIaCa-58" value="" style="endArrow=none;html=1;rounded=0;entryX=0.442;entryY=0.968;entryDx=0;entryDy=0;entryPerimeter=0;" parent="1" target="TXWCQ0G7Xnb6KMwIIaCa-57" edge="1">
          <mxGeometry relative="1" as="geometry">
            <mxPoint x="920" y="50" as="sourcePoint" />
            <mxPoint x="1110" y="80" as="targetPoint" />
          </mxGeometry>
        </mxCell>
        <mxCell id="TXWCQ0G7Xnb6KMwIIaCa-59" value="customs_id" style="ellipse;whiteSpace=wrap;html=1;align=center;fontStyle=4;" parent="1" vertex="1">
          <mxGeometry x="160" y="660" width="100" height="40" as="geometry" />
        </mxCell>
        <mxCell id="TXWCQ0G7Xnb6KMwIIaCa-60" value="" style="endArrow=none;html=1;rounded=0;exitX=0.671;exitY=0.988;exitDx=0;exitDy=0;exitPerimeter=0;entryX=0;entryY=0.5;entryDx=0;entryDy=0;" parent="1" source="TXWCQ0G7Xnb6KMwIIaCa-59" target="8ktQpaHQvq93Z4VPpIjw-5" edge="1">
          <mxGeometry relative="1" as="geometry">
            <mxPoint x="190" y="770" as="sourcePoint" />
            <mxPoint x="350" y="770" as="targetPoint" />
          </mxGeometry>
        </mxCell>
        <mxCell id="TXWCQ0G7Xnb6KMwIIaCa-61" value="regulation" style="ellipse;whiteSpace=wrap;html=1;align=center;" parent="1" vertex="1">
          <mxGeometry x="120" y="740" width="100" height="40" as="geometry" />
        </mxCell>
        <mxCell id="TXWCQ0G7Xnb6KMwIIaCa-62" value="" style="endArrow=none;html=1;rounded=0;exitX=1;exitY=0.5;exitDx=0;exitDy=0;entryX=0;entryY=0.5;entryDx=0;entryDy=0;" parent="1" source="TXWCQ0G7Xnb6KMwIIaCa-61" target="8ktQpaHQvq93Z4VPpIjw-5" edge="1">
          <mxGeometry relative="1" as="geometry">
            <mxPoint x="160" y="790" as="sourcePoint" />
            <mxPoint x="320" y="790" as="targetPoint" />
          </mxGeometry>
        </mxCell>
        <mxCell id="TXWCQ0G7Xnb6KMwIIaCa-63" value="processing_time" style="ellipse;whiteSpace=wrap;html=1;align=center;" parent="1" vertex="1">
          <mxGeometry x="415" y="780" width="100" height="40" as="geometry" />
        </mxCell>
        <mxCell id="TXWCQ0G7Xnb6KMwIIaCa-64" value="" style="endArrow=none;html=1;rounded=0;exitX=1;exitY=0.5;exitDx=0;exitDy=0;entryX=0.45;entryY=0;entryDx=0;entryDy=0;entryPerimeter=0;" parent="1" source="8ktQpaHQvq93Z4VPpIjw-5" target="TXWCQ0G7Xnb6KMwIIaCa-63" edge="1">
          <mxGeometry relative="1" as="geometry">
            <mxPoint x="430" y="770" as="sourcePoint" />
            <mxPoint x="590" y="770" as="targetPoint" />
          </mxGeometry>
        </mxCell>
        <mxCell id="TXWCQ0G7Xnb6KMwIIaCa-65" value="base_fee" style="ellipse;whiteSpace=wrap;html=1;align=center;" parent="1" vertex="1">
          <mxGeometry x="-60" y="-40" width="100" height="40" as="geometry" />
        </mxCell>
        <mxCell id="TXWCQ0G7Xnb6KMwIIaCa-66" value="" style="endArrow=none;html=1;rounded=0;exitX=0.634;exitY=0.92;exitDx=0;exitDy=0;exitPerimeter=0;entryX=0.392;entryY=0.06;entryDx=0;entryDy=0;entryPerimeter=0;" parent="1" source="TXWCQ0G7Xnb6KMwIIaCa-65" target="TXWCQ0G7Xnb6KMwIIaCa-24" edge="1">
          <mxGeometry relative="1" as="geometry">
            <mxPoint x="50" y="30" as="sourcePoint" />
            <mxPoint x="210" y="30" as="targetPoint" />
          </mxGeometry>
        </mxCell>
        <mxCell id="TXWCQ0G7Xnb6KMwIIaCa-67" value="tax_rate" style="ellipse;whiteSpace=wrap;html=1;align=center;" parent="1" vertex="1">
          <mxGeometry x="152.5" y="-40" width="100" height="40" as="geometry" />
        </mxCell>
        <mxCell id="TXWCQ0G7Xnb6KMwIIaCa-68" value="" style="endArrow=none;html=1;rounded=0;exitX=0.5;exitY=0;exitDx=0;exitDy=0;entryX=0.5;entryY=1;entryDx=0;entryDy=0;" parent="1" source="TXWCQ0G7Xnb6KMwIIaCa-24" target="TXWCQ0G7Xnb6KMwIIaCa-67" edge="1">
          <mxGeometry relative="1" as="geometry">
            <mxPoint x="200" y="30" as="sourcePoint" />
            <mxPoint x="360" y="30" as="targetPoint" />
          </mxGeometry>
        </mxCell>
        <mxCell id="TXWCQ0G7Xnb6KMwIIaCa-69" value="fee_id" style="ellipse;whiteSpace=wrap;html=1;align=center;" parent="1" vertex="1">
          <mxGeometry x="-80" y="40" width="100" height="40" as="geometry" />
        </mxCell>
        <mxCell id="TXWCQ0G7Xnb6KMwIIaCa-71" value="" style="endArrow=none;html=1;rounded=0;exitX=1;exitY=0.5;exitDx=0;exitDy=0;entryX=0;entryY=0.5;entryDx=0;entryDy=0;" parent="1" source="TXWCQ0G7Xnb6KMwIIaCa-69" target="TXWCQ0G7Xnb6KMwIIaCa-24" edge="1">
          <mxGeometry relative="1" as="geometry">
            <mxPoint x="40" y="110" as="sourcePoint" />
            <mxPoint x="200" y="110" as="targetPoint" />
          </mxGeometry>
        </mxCell>
        <mxCell id="TXWCQ0G7Xnb6KMwIIaCa-72" value="warehouse_id" style="ellipse;whiteSpace=wrap;html=1;align=center;" parent="1" vertex="1">
          <mxGeometry x="310" y="-50" width="100" height="40" as="geometry" />
        </mxCell>
        <mxCell id="TXWCQ0G7Xnb6KMwIIaCa-73" value="" style="endArrow=none;html=1;rounded=0;exitX=0.5;exitY=1;exitDx=0;exitDy=0;entryX=0.5;entryY=0;entryDx=0;entryDy=0;" parent="1" source="TXWCQ0G7Xnb6KMwIIaCa-72" target="8ktQpaHQvq93Z4VPpIjw-60" edge="1">
          <mxGeometry relative="1" as="geometry">
            <mxPoint x="250" y="40" as="sourcePoint" />
            <mxPoint x="410" y="40" as="targetPoint" />
          </mxGeometry>
        </mxCell>
        <mxCell id="TXWCQ0G7Xnb6KMwIIaCa-74" value="capacity" style="ellipse;whiteSpace=wrap;html=1;align=center;" parent="1" vertex="1">
          <mxGeometry x="200" y="110" width="100" height="40" as="geometry" />
        </mxCell>
        <mxCell id="TXWCQ0G7Xnb6KMwIIaCa-75" value="" style="endArrow=none;html=1;rounded=0;exitX=0.5;exitY=0;exitDx=0;exitDy=0;entryX=0.422;entryY=1.001;entryDx=0;entryDy=0;entryPerimeter=0;" parent="1" source="TXWCQ0G7Xnb6KMwIIaCa-74" target="8ktQpaHQvq93Z4VPpIjw-60" edge="1">
          <mxGeometry relative="1" as="geometry">
            <mxPoint x="200" y="100" as="sourcePoint" />
            <mxPoint x="360" y="100" as="targetPoint" />
          </mxGeometry>
        </mxCell>
        <mxCell id="TXWCQ0G7Xnb6KMwIIaCa-76" value="provider_name" style="ellipse;whiteSpace=wrap;html=1;align=center;" parent="1" vertex="1">
          <mxGeometry x="1200" y="765" width="100" height="40" as="geometry" />
        </mxCell>
        <mxCell id="TXWCQ0G7Xnb6KMwIIaCa-77" value="type" style="ellipse;whiteSpace=wrap;html=1;align=center;" parent="1" vertex="1">
          <mxGeometry x="1320" y="775" width="100" height="40" as="geometry" />
        </mxCell>
        <mxCell id="TXWCQ0G7Xnb6KMwIIaCa-78" value="provider_id" style="ellipse;whiteSpace=wrap;html=1;align=center;fontStyle=4;" parent="1" vertex="1">
          <mxGeometry x="1320" y="922.5" width="100" height="40" as="geometry" />
        </mxCell>
        <mxCell id="TXWCQ0G7Xnb6KMwIIaCa-79" value="" style="endArrow=none;html=1;rounded=0;exitX=0.5;exitY=1;exitDx=0;exitDy=0;entryX=0.5;entryY=0;entryDx=0;entryDy=0;" parent="1" source="TXWCQ0G7Xnb6KMwIIaCa-76" target="8ktQpaHQvq93Z4VPpIjw-13" edge="1">
          <mxGeometry relative="1" as="geometry">
            <mxPoint x="1250" y="812.5" as="sourcePoint" />
            <mxPoint x="1410" y="812.5" as="targetPoint" />
          </mxGeometry>
        </mxCell>
        <mxCell id="TXWCQ0G7Xnb6KMwIIaCa-80" value="" style="endArrow=none;html=1;rounded=0;exitX=0.5;exitY=0;exitDx=0;exitDy=0;entryX=0.439;entryY=1.039;entryDx=0;entryDy=0;entryPerimeter=0;" parent="1" source="8ktQpaHQvq93Z4VPpIjw-13" target="TXWCQ0G7Xnb6KMwIIaCa-77" edge="1">
          <mxGeometry relative="1" as="geometry">
            <mxPoint x="1400" y="872.5" as="sourcePoint" />
            <mxPoint x="1560" y="872.5" as="targetPoint" />
          </mxGeometry>
        </mxCell>
        <mxCell id="TXWCQ0G7Xnb6KMwIIaCa-81" value="" style="endArrow=none;html=1;rounded=0;exitX=0.75;exitY=1;exitDx=0;exitDy=0;entryX=0.439;entryY=0.059;entryDx=0;entryDy=0;entryPerimeter=0;" parent="1" source="8ktQpaHQvq93Z4VPpIjw-13" target="TXWCQ0G7Xnb6KMwIIaCa-78" edge="1">
          <mxGeometry relative="1" as="geometry">
            <mxPoint x="1410" y="912.5" as="sourcePoint" />
            <mxPoint x="1570" y="912.5" as="targetPoint" />
          </mxGeometry>
        </mxCell>
        <mxCell id="TXWCQ0G7Xnb6KMwIIaCa-82" value="time_zone" style="ellipse;whiteSpace=wrap;html=1;align=center;" parent="1" vertex="1">
          <mxGeometry x="930" y="370" width="100" height="40" as="geometry" />
        </mxCell>
        <mxCell id="TXWCQ0G7Xnb6KMwIIaCa-83" value="" style="endArrow=none;html=1;rounded=0;exitX=0.705;exitY=0.936;exitDx=0;exitDy=0;exitPerimeter=0;entryX=0;entryY=0;entryDx=0;entryDy=0;" parent="1" source="TXWCQ0G7Xnb6KMwIIaCa-82" target="4PiyHeSA2Cq_FkqWzUte-66" edge="1">
          <mxGeometry relative="1" as="geometry">
            <mxPoint x="1040" y="440" as="sourcePoint" />
            <mxPoint x="1200" y="440" as="targetPoint" />
          </mxGeometry>
        </mxCell>
        <mxCell id="TXWCQ0G7Xnb6KMwIIaCa-84" value="departure_time" style="ellipse;whiteSpace=wrap;html=1;align=center;" parent="1" vertex="1">
          <mxGeometry x="-170" y="400" width="90" height="40" as="geometry" />
        </mxCell>
        <mxCell id="TXWCQ0G7Xnb6KMwIIaCa-85" value="shipment_id" style="ellipse;whiteSpace=wrap;html=1;align=center;fontStyle=4;" parent="1" vertex="1">
          <mxGeometry x="-180" y="541" width="100" height="40" as="geometry" />
        </mxCell>
        <mxCell id="TXWCQ0G7Xnb6KMwIIaCa-86" value="arrival_time" style="ellipse;whiteSpace=wrap;html=1;align=center;" parent="1" vertex="1">
          <mxGeometry x="10" y="400" width="100" height="40" as="geometry" />
        </mxCell>
        <mxCell id="TXWCQ0G7Xnb6KMwIIaCa-87" value="" style="endArrow=none;html=1;rounded=0;exitX=0.5;exitY=0;exitDx=0;exitDy=0;entryX=0;entryY=1;entryDx=0;entryDy=0;" parent="1" source="TXWCQ0G7Xnb6KMwIIaCa-85" target="TXWCQ0G7Xnb6KMwIIaCa-3" edge="1">
          <mxGeometry relative="1" as="geometry">
            <mxPoint x="-40" y="570" as="sourcePoint" />
            <mxPoint x="120" y="570" as="targetPoint" />
          </mxGeometry>
        </mxCell>
        <mxCell id="TXWCQ0G7Xnb6KMwIIaCa-88" value="" style="endArrow=none;html=1;rounded=0;exitX=0.5;exitY=1;exitDx=0;exitDy=0;entryX=0;entryY=0;entryDx=0;entryDy=0;" parent="1" source="TXWCQ0G7Xnb6KMwIIaCa-84" target="TXWCQ0G7Xnb6KMwIIaCa-3" edge="1">
          <mxGeometry relative="1" as="geometry">
            <mxPoint x="-140" y="490" as="sourcePoint" />
            <mxPoint x="20" y="490" as="targetPoint" />
          </mxGeometry>
        </mxCell>
        <mxCell id="TXWCQ0G7Xnb6KMwIIaCa-89" value="" style="endArrow=none;html=1;rounded=0;exitX=1;exitY=0;exitDx=0;exitDy=0;entryX=0.5;entryY=1;entryDx=0;entryDy=0;" parent="1" source="TXWCQ0G7Xnb6KMwIIaCa-3" target="TXWCQ0G7Xnb6KMwIIaCa-86" edge="1">
          <mxGeometry relative="1" as="geometry">
            <mxPoint x="20" y="460" as="sourcePoint" />
            <mxPoint x="180" y="460" as="targetPoint" />
          </mxGeometry>
        </mxCell>
        <mxCell id="TXWCQ0G7Xnb6KMwIIaCa-90" value="distance" style="ellipse;whiteSpace=wrap;html=1;align=center;" parent="1" vertex="1">
          <mxGeometry x="-210" y="110" width="100" height="40" as="geometry" />
        </mxCell>
        <mxCell id="TXWCQ0G7Xnb6KMwIIaCa-91" value="route_id" style="ellipse;whiteSpace=wrap;html=1;align=center;fontStyle=4;" parent="1" vertex="1">
          <mxGeometry x="-200" y="217.5" width="80" height="32.5" as="geometry" />
        </mxCell>
        <mxCell id="TXWCQ0G7Xnb6KMwIIaCa-92" value="estimated_time" style="ellipse;whiteSpace=wrap;html=1;align=center;" parent="1" vertex="1">
          <mxGeometry x="-40" y="100" width="100" height="40" as="geometry" />
        </mxCell>
        <mxCell id="TXWCQ0G7Xnb6KMwIIaCa-93" value="type" style="ellipse;whiteSpace=wrap;html=1;align=center;" parent="1" vertex="1">
          <mxGeometry x="21.5" y="230" width="77" height="35" as="geometry" />
        </mxCell>
        <mxCell id="TXWCQ0G7Xnb6KMwIIaCa-94" value="" style="endArrow=none;html=1;rounded=0;exitX=0.768;exitY=0.838;exitDx=0;exitDy=0;exitPerimeter=0;entryX=0;entryY=0;entryDx=0;entryDy=0;" parent="1" source="TXWCQ0G7Xnb6KMwIIaCa-90" target="TXWCQ0G7Xnb6KMwIIaCa-16" edge="1">
          <mxGeometry relative="1" as="geometry">
            <mxPoint x="-160" y="180" as="sourcePoint" />
            <mxPoint y="180" as="targetPoint" />
          </mxGeometry>
        </mxCell>
        <mxCell id="TXWCQ0G7Xnb6KMwIIaCa-95" value="" style="endArrow=none;html=1;rounded=0;exitX=0.982;exitY=0.34;exitDx=0;exitDy=0;exitPerimeter=0;entryX=0;entryY=1;entryDx=0;entryDy=0;" parent="1" source="TXWCQ0G7Xnb6KMwIIaCa-91" target="TXWCQ0G7Xnb6KMwIIaCa-16" edge="1">
          <mxGeometry relative="1" as="geometry">
            <mxPoint x="-110" y="250" as="sourcePoint" />
            <mxPoint x="50" y="250" as="targetPoint" />
          </mxGeometry>
        </mxCell>
        <mxCell id="TXWCQ0G7Xnb6KMwIIaCa-96" value="" style="endArrow=none;html=1;rounded=0;exitX=0.5;exitY=0;exitDx=0;exitDy=0;entryX=0.5;entryY=1;entryDx=0;entryDy=0;" parent="1" source="TXWCQ0G7Xnb6KMwIIaCa-16" target="TXWCQ0G7Xnb6KMwIIaCa-92" edge="1">
          <mxGeometry relative="1" as="geometry">
            <mxPoint y="150" as="sourcePoint" />
            <mxPoint x="160" y="150" as="targetPoint" />
          </mxGeometry>
        </mxCell>
        <mxCell id="TXWCQ0G7Xnb6KMwIIaCa-97" value="" style="endArrow=none;html=1;rounded=0;exitX=1;exitY=1;exitDx=0;exitDy=0;entryX=0;entryY=0;entryDx=0;entryDy=0;" parent="1" source="TXWCQ0G7Xnb6KMwIIaCa-16" target="TXWCQ0G7Xnb6KMwIIaCa-93" edge="1">
          <mxGeometry relative="1" as="geometry">
            <mxPoint x="30" y="230" as="sourcePoint" />
            <mxPoint x="190" y="230" as="targetPoint" />
          </mxGeometry>
        </mxCell>
        <mxCell id="TXWCQ0G7Xnb6KMwIIaCa-98" value="station_id" style="ellipse;whiteSpace=wrap;html=1;align=center;fontStyle=4;" parent="1" vertex="1">
          <mxGeometry x="405" y="178" width="85" height="42" as="geometry" />
        </mxCell>
        <mxCell id="TXWCQ0G7Xnb6KMwIIaCa-99" value="" style="endArrow=none;html=1;rounded=0;exitX=0.696;exitY=-0.023;exitDx=0;exitDy=0;exitPerimeter=0;entryX=0.5;entryY=1;entryDx=0;entryDy=0;" parent="1" source="8ktQpaHQvq93Z4VPpIjw-1" target="TXWCQ0G7Xnb6KMwIIaCa-98" edge="1">
          <mxGeometry relative="1" as="geometry">
            <mxPoint x="390" y="230" as="sourcePoint" />
            <mxPoint x="550" y="230" as="targetPoint" />
          </mxGeometry>
        </mxCell>
        <mxCell id="TXWCQ0G7Xnb6KMwIIaCa-100" value="station_name" style="ellipse;whiteSpace=wrap;html=1;align=center;" parent="1" vertex="1">
          <mxGeometry x="208" y="190" width="100" height="40" as="geometry" />
        </mxCell>
        <mxCell id="TXWCQ0G7Xnb6KMwIIaCa-101" value="address" style="ellipse;whiteSpace=wrap;html=1;align=center;" parent="1" vertex="1">
          <mxGeometry x="230" y="320" width="80" height="40" as="geometry" />
        </mxCell>
        <mxCell id="TXWCQ0G7Xnb6KMwIIaCa-102" value="" style="endArrow=none;html=1;rounded=0;exitX=0.5;exitY=0;exitDx=0;exitDy=0;entryX=0;entryY=1;entryDx=0;entryDy=0;" parent="1" source="TXWCQ0G7Xnb6KMwIIaCa-101" target="8ktQpaHQvq93Z4VPpIjw-1" edge="1">
          <mxGeometry relative="1" as="geometry">
            <mxPoint x="260" y="310" as="sourcePoint" />
            <mxPoint x="420" y="310" as="targetPoint" />
          </mxGeometry>
        </mxCell>
        <mxCell id="TXWCQ0G7Xnb6KMwIIaCa-103" value="" style="endArrow=none;html=1;rounded=0;exitX=0.67;exitY=0.975;exitDx=0;exitDy=0;exitPerimeter=0;entryX=0;entryY=0;entryDx=0;entryDy=0;" parent="1" source="TXWCQ0G7Xnb6KMwIIaCa-100" target="8ktQpaHQvq93Z4VPpIjw-1" edge="1">
          <mxGeometry relative="1" as="geometry">
            <mxPoint x="230" y="250" as="sourcePoint" />
            <mxPoint x="390" y="250" as="targetPoint" />
          </mxGeometry>
        </mxCell>
        <mxCell id="TXWCQ0G7Xnb6KMwIIaCa-104" value="vat" style="ellipse;whiteSpace=wrap;html=1;align=center;" parent="1" vertex="1">
          <mxGeometry x="470" y="-30" width="100" height="40" as="geometry" />
        </mxCell>
        <mxCell id="TXWCQ0G7Xnb6KMwIIaCa-105" value="invoice_id" style="ellipse;whiteSpace=wrap;html=1;align=center;fontStyle=4;" parent="1" vertex="1">
          <mxGeometry x="600" y="-30" width="100" height="40" as="geometry" />
        </mxCell>
        <mxCell id="TXWCQ0G7Xnb6KMwIIaCa-106" value="" style="endArrow=none;html=1;rounded=0;exitX=0.75;exitY=0;exitDx=0;exitDy=0;entryX=0.5;entryY=1;entryDx=0;entryDy=0;" parent="1" source="TXWCQ0G7Xnb6KMwIIaCa-30" target="TXWCQ0G7Xnb6KMwIIaCa-105" edge="1">
          <mxGeometry relative="1" as="geometry">
            <mxPoint x="570" y="20" as="sourcePoint" />
            <mxPoint x="730" y="20" as="targetPoint" />
          </mxGeometry>
        </mxCell>
        <mxCell id="TXWCQ0G7Xnb6KMwIIaCa-107" value="" style="endArrow=none;html=1;rounded=0;exitX=0.575;exitY=1.076;exitDx=0;exitDy=0;exitPerimeter=0;entryX=0.25;entryY=0;entryDx=0;entryDy=0;" parent="1" source="TXWCQ0G7Xnb6KMwIIaCa-104" target="TXWCQ0G7Xnb6KMwIIaCa-30" edge="1">
          <mxGeometry relative="1" as="geometry">
            <mxPoint x="510" y="20" as="sourcePoint" />
            <mxPoint x="670" y="20" as="targetPoint" />
          </mxGeometry>
        </mxCell>
        <mxCell id="TXWCQ0G7Xnb6KMwIIaCa-108" value="issua_date" style="ellipse;whiteSpace=wrap;html=1;align=center;" parent="1" vertex="1">
          <mxGeometry x="600" y="130" width="100" height="40" as="geometry" />
        </mxCell>
        <mxCell id="TXWCQ0G7Xnb6KMwIIaCa-109" value="" style="endArrow=none;html=1;rounded=0;exitX=0.5;exitY=1;exitDx=0;exitDy=0;entryX=0.459;entryY=-0.021;entryDx=0;entryDy=0;entryPerimeter=0;" parent="1" source="TXWCQ0G7Xnb6KMwIIaCa-30" target="TXWCQ0G7Xnb6KMwIIaCa-108" edge="1">
          <mxGeometry relative="1" as="geometry">
            <mxPoint x="580" y="110" as="sourcePoint" />
            <mxPoint x="740" y="110" as="targetPoint" />
          </mxGeometry>
        </mxCell>
        <mxCell id="TXWCQ0G7Xnb6KMwIIaCa-110" value="driver_id" style="ellipse;whiteSpace=wrap;html=1;align=center;fontStyle=4;" parent="1" vertex="1">
          <mxGeometry x="568" y="1100" width="100" height="40" as="geometry" />
        </mxCell>
        <mxCell id="TXWCQ0G7Xnb6KMwIIaCa-111" value="name" style="ellipse;whiteSpace=wrap;html=1;align=center;" parent="1" vertex="1">
          <mxGeometry x="738" y="1100" width="100" height="40" as="geometry" />
        </mxCell>
        <mxCell id="TXWCQ0G7Xnb6KMwIIaCa-112" value="visa_status" style="ellipse;whiteSpace=wrap;html=1;align=center;" parent="1" vertex="1">
          <mxGeometry x="515" y="980" width="100" height="40" as="geometry" />
        </mxCell>
        <mxCell id="TXWCQ0G7Xnb6KMwIIaCa-113" value="" style="endArrow=none;html=1;rounded=0;exitX=0.747;exitY=0.949;exitDx=0;exitDy=0;exitPerimeter=0;entryX=0;entryY=0.5;entryDx=0;entryDy=0;" parent="1" source="TXWCQ0G7Xnb6KMwIIaCa-112" target="8ktQpaHQvq93Z4VPpIjw-27" edge="1">
          <mxGeometry relative="1" as="geometry">
            <mxPoint x="540" y="1080" as="sourcePoint" />
            <mxPoint x="700" y="1080" as="targetPoint" />
          </mxGeometry>
        </mxCell>
        <mxCell id="TXWCQ0G7Xnb6KMwIIaCa-114" value="" style="endArrow=none;html=1;rounded=0;exitX=0.689;exitY=-0.007;exitDx=0;exitDy=0;exitPerimeter=0;entryX=0.43;entryY=1.003;entryDx=0;entryDy=0;entryPerimeter=0;" parent="1" source="TXWCQ0G7Xnb6KMwIIaCa-110" target="8ktQpaHQvq93Z4VPpIjw-27" edge="1">
          <mxGeometry relative="1" as="geometry">
            <mxPoint x="640" y="1090" as="sourcePoint" />
            <mxPoint x="800" y="1090" as="targetPoint" />
          </mxGeometry>
        </mxCell>
        <mxCell id="TXWCQ0G7Xnb6KMwIIaCa-115" value="" style="endArrow=none;html=1;rounded=0;exitX=0.696;exitY=0.992;exitDx=0;exitDy=0;exitPerimeter=0;entryX=0.383;entryY=-0.07;entryDx=0;entryDy=0;entryPerimeter=0;" parent="1" source="8ktQpaHQvq93Z4VPpIjw-27" target="TXWCQ0G7Xnb6KMwIIaCa-111" edge="1">
          <mxGeometry relative="1" as="geometry">
            <mxPoint x="730" y="1080" as="sourcePoint" />
            <mxPoint x="890" y="1080" as="targetPoint" />
          </mxGeometry>
        </mxCell>
        <mxCell id="TXWCQ0G7Xnb6KMwIIaCa-116" value="vehicle_id" style="ellipse;whiteSpace=wrap;html=1;align=center;fontStyle=4;" parent="1" vertex="1">
          <mxGeometry x="640" y="765" width="80" height="30" as="geometry" />
        </mxCell>
        <mxCell id="TXWCQ0G7Xnb6KMwIIaCa-117" value="" style="endArrow=none;html=1;rounded=0;exitX=0.552;exitY=1.018;exitDx=0;exitDy=0;exitPerimeter=0;entryX=0.5;entryY=0;entryDx=0;entryDy=0;" parent="1" source="TXWCQ0G7Xnb6KMwIIaCa-116" target="8ktQpaHQvq93Z4VPpIjw-21" edge="1">
          <mxGeometry relative="1" as="geometry">
            <mxPoint x="630" y="810" as="sourcePoint" />
            <mxPoint x="790" y="810" as="targetPoint" />
          </mxGeometry>
        </mxCell>
        <mxCell id="TXWCQ0G7Xnb6KMwIIaCa-118" value="type" style="ellipse;whiteSpace=wrap;html=1;align=center;" parent="1" vertex="1">
          <mxGeometry x="770" y="775" width="65" height="35" as="geometry" />
        </mxCell>
        <mxCell id="TXWCQ0G7Xnb6KMwIIaCa-119" value="" style="endArrow=none;html=1;rounded=0;exitX=1;exitY=0;exitDx=0;exitDy=0;entryX=0.5;entryY=1;entryDx=0;entryDy=0;" parent="1" source="8ktQpaHQvq93Z4VPpIjw-21" target="TXWCQ0G7Xnb6KMwIIaCa-118" edge="1">
          <mxGeometry relative="1" as="geometry">
            <mxPoint x="750" y="800" as="sourcePoint" />
            <mxPoint x="910" y="800" as="targetPoint" />
          </mxGeometry>
        </mxCell>
        <mxCell id="TXWCQ0G7Xnb6KMwIIaCa-120" value="capacity" style="ellipse;whiteSpace=wrap;html=1;align=center;" parent="1" vertex="1">
          <mxGeometry x="770" y="885" width="92" height="31" as="geometry" />
        </mxCell>
        <mxCell id="TXWCQ0G7Xnb6KMwIIaCa-121" value="" style="endArrow=none;html=1;rounded=0;exitX=1;exitY=1;exitDx=0;exitDy=0;entryX=0;entryY=0;entryDx=0;entryDy=0;" parent="1" source="8ktQpaHQvq93Z4VPpIjw-21" target="TXWCQ0G7Xnb6KMwIIaCa-120" edge="1">
          <mxGeometry relative="1" as="geometry">
            <mxPoint x="740" y="880" as="sourcePoint" />
            <mxPoint x="900" y="880" as="targetPoint" />
          </mxGeometry>
        </mxCell>
        <mxCell id="TXWCQ0G7Xnb6KMwIIaCa-123" value="&lt;div&gt;Region&lt;/div&gt;" style="text;strokeColor=none;fillColor=none;spacingLeft=4;spacingRight=4;overflow=hidden;rotatable=0;points=[[0,0.5],[1,0.5]];portConstraint=eastwest;fontSize=12;whiteSpace=wrap;html=1;" parent="1" vertex="1">
          <mxGeometry x="119" y="1475" width="60" height="30" as="geometry" />
        </mxCell>
        <mxCell id="TXWCQ0G7Xnb6KMwIIaCa-124" value="region_id" style="whiteSpace=wrap;html=1;align=center;" parent="1" vertex="1">
          <mxGeometry x="209" y="1470" width="100" height="40" as="geometry" />
        </mxCell>
        <mxCell id="TXWCQ0G7Xnb6KMwIIaCa-125" value="region_name" style="whiteSpace=wrap;html=1;align=center;" parent="1" vertex="1">
          <mxGeometry x="309" y="1470" width="100" height="40" as="geometry" />
        </mxCell>
        <mxCell id="TXWCQ0G7Xnb6KMwIIaCa-127" value="Country" style="text;strokeColor=none;fillColor=none;spacingLeft=4;spacingRight=4;overflow=hidden;rotatable=0;points=[[0,0.5],[1,0.5]];portConstraint=eastwest;fontSize=12;whiteSpace=wrap;html=1;" parent="1" vertex="1">
          <mxGeometry x="119" y="1555" width="60" height="30" as="geometry" />
        </mxCell>
        <mxCell id="TXWCQ0G7Xnb6KMwIIaCa-128" value="country_id" style="whiteSpace=wrap;html=1;align=center;" parent="1" vertex="1">
          <mxGeometry x="209" y="1550" width="100" height="40" as="geometry" />
        </mxCell>
        <mxCell id="TXWCQ0G7Xnb6KMwIIaCa-129" value="country_name" style="whiteSpace=wrap;html=1;align=center;" parent="1" vertex="1">
          <mxGeometry x="309" y="1550" width="100" height="40" as="geometry" />
        </mxCell>
        <mxCell id="TXWCQ0G7Xnb6KMwIIaCa-130" value="region_id" style="whiteSpace=wrap;html=1;align=center;" parent="1" vertex="1">
          <mxGeometry x="409" y="1550" width="100" height="40" as="geometry" />
        </mxCell>
        <mxCell id="TXWCQ0G7Xnb6KMwIIaCa-131" value="time_zone" style="whiteSpace=wrap;html=1;align=center;" parent="1" vertex="1">
          <mxGeometry x="508" y="1550" width="100" height="40" as="geometry" />
        </mxCell>
        <mxCell id="TXWCQ0G7Xnb6KMwIIaCa-132" value="" style="endArrow=classic;html=1;rounded=0;entryX=0.5;entryY=1;entryDx=0;entryDy=0;exitX=0.5;exitY=1;exitDx=0;exitDy=0;" parent="1" source="TXWCQ0G7Xnb6KMwIIaCa-130" target="TXWCQ0G7Xnb6KMwIIaCa-124" edge="1">
          <mxGeometry width="50" height="50" relative="1" as="geometry">
            <mxPoint x="390" y="1610" as="sourcePoint" />
            <mxPoint x="440" y="1560" as="targetPoint" />
            <Array as="points">
              <mxPoint x="459" y="1610" />
              <mxPoint x="650" y="1610" />
              <mxPoint x="650" y="1530" />
              <mxPoint x="260" y="1530" />
            </Array>
          </mxGeometry>
        </mxCell>
        <mxCell id="TXWCQ0G7Xnb6KMwIIaCa-133" value="" style="endArrow=classic;html=1;rounded=0;entryX=0.5;entryY=1;entryDx=0;entryDy=0;exitX=0.5;exitY=1;exitDx=0;exitDy=0;" parent="1" source="fapul2Xf9I7T7R9drmPT-15" target="TXWCQ0G7Xnb6KMwIIaCa-128" edge="1">
          <mxGeometry width="50" height="50" relative="1" as="geometry">
            <mxPoint x="180" y="1670" as="sourcePoint" />
            <mxPoint x="230" y="1620" as="targetPoint" />
            <Array as="points">
              <mxPoint x="560" y="1700" />
              <mxPoint x="990" y="1700" />
              <mxPoint x="990" y="1620" />
              <mxPoint x="259" y="1620" />
            </Array>
          </mxGeometry>
        </mxCell>
        <mxCell id="TXWCQ0G7Xnb6KMwIIaCa-134" value="" style="endArrow=classic;html=1;rounded=0;entryX=0.91;entryY=1;entryDx=0;entryDy=0;entryPerimeter=0;exitX=0.5;exitY=1;exitDx=0;exitDy=0;" parent="1" source="fapul2Xf9I7T7R9drmPT-66" target="TXWCQ0G7Xnb6KMwIIaCa-128" edge="1">
          <mxGeometry width="50" height="50" relative="1" as="geometry">
            <mxPoint x="19.4" y="1728.7" as="sourcePoint" />
            <mxPoint x="311.0000000000001" y="1591.3000000000004" as="targetPoint" />
            <Array as="points">
              <mxPoint x="558" y="1800" />
              <mxPoint x="70" y="1800" />
              <mxPoint x="70" y="1610" />
              <mxPoint x="300" y="1610" />
            </Array>
          </mxGeometry>
        </mxCell>
        <mxCell id="TXWCQ0G7Xnb6KMwIIaCa-135" value="" style="endArrow=classic;html=1;rounded=0;entryX=0.75;entryY=1;entryDx=0;entryDy=0;exitX=0.5;exitY=1;exitDx=0;exitDy=0;" parent="1" source="fapul2Xf9I7T7R9drmPT-112" target="TXWCQ0G7Xnb6KMwIIaCa-128" edge="1">
          <mxGeometry width="50" height="50" relative="1" as="geometry">
            <mxPoint y="1820" as="sourcePoint" />
            <mxPoint x="50" y="1770" as="targetPoint" />
            <Array as="points">
              <mxPoint x="359" y="1920" />
              <mxPoint x="1060" y="1920" />
              <mxPoint x="1060" y="1630" />
              <mxPoint x="284" y="1630" />
            </Array>
          </mxGeometry>
        </mxCell>
        <mxCell id="TXWCQ0G7Xnb6KMwIIaCa-136" value="amount" style="ellipse;whiteSpace=wrap;html=1;align=center;" parent="1" vertex="1">
          <mxGeometry x="222.5" y="581" width="81" height="40" as="geometry" />
        </mxCell>
        <mxCell id="TXWCQ0G7Xnb6KMwIIaCa-138" value="" style="endArrow=none;html=1;rounded=0;exitX=0.5;exitY=0;exitDx=0;exitDy=0;entryX=0;entryY=0.5;entryDx=0;entryDy=0;" parent="1" source="TXWCQ0G7Xnb6KMwIIaCa-136" target="4PiyHeSA2Cq_FkqWzUte-1" edge="1">
          <mxGeometry relative="1" as="geometry">
            <mxPoint x="250" y="560" as="sourcePoint" />
            <mxPoint x="410" y="560" as="targetPoint" />
          </mxGeometry>
        </mxCell>
        <mxCell id="TXWCQ0G7Xnb6KMwIIaCa-139" value="total_weight" style="ellipse;whiteSpace=wrap;html=1;align=center;" parent="1" vertex="1">
          <mxGeometry x="470" y="400" width="100" height="40" as="geometry" />
        </mxCell>
        <mxCell id="TXWCQ0G7Xnb6KMwIIaCa-140" value="" style="endArrow=none;html=1;rounded=0;exitX=0.75;exitY=0;exitDx=0;exitDy=0;entryX=0.5;entryY=1;entryDx=0;entryDy=0;" parent="1" source="4PiyHeSA2Cq_FkqWzUte-1" target="TXWCQ0G7Xnb6KMwIIaCa-139" edge="1">
          <mxGeometry relative="1" as="geometry">
            <mxPoint x="430" y="470" as="sourcePoint" />
            <mxPoint x="590" y="470" as="targetPoint" />
          </mxGeometry>
        </mxCell>
        <mxCell id="TXWCQ0G7Xnb6KMwIIaCa-141" value="" style="endArrow=classic;html=1;rounded=0;entryX=0.5;entryY=1;entryDx=0;entryDy=0;exitX=0.5;exitY=1;exitDx=0;exitDy=0;" parent="1" source="fapul2Xf9I7T7R9drmPT-3" target="fapul2Xf9I7T7R9drmPT-12" edge="1">
          <mxGeometry width="50" height="50" relative="1" as="geometry">
            <mxPoint x="260" y="1950" as="sourcePoint" />
            <mxPoint x="310" y="1900" as="targetPoint" />
            <Array as="points">
              <mxPoint x="359" y="2020" />
              <mxPoint x="1130" y="2020" />
              <mxPoint x="1130" y="1710" />
              <mxPoint x="259" y="1710" />
            </Array>
          </mxGeometry>
        </mxCell>
        <mxCell id="TXWCQ0G7Xnb6KMwIIaCa-142" value="" style="endArrow=classic;html=1;rounded=0;entryX=0.5;entryY=1;entryDx=0;entryDy=0;exitX=0.5;exitY=1;exitDx=0;exitDy=0;" parent="1" source="fapul2Xf9I7T7R9drmPT-4" target="fapul2Xf9I7T7R9drmPT-63" edge="1">
          <mxGeometry width="50" height="50" relative="1" as="geometry">
            <mxPoint x="390" y="2060" as="sourcePoint" />
            <mxPoint x="440" y="2010" as="targetPoint" />
            <Array as="points">
              <mxPoint x="460" y="2000" />
              <mxPoint x="1140" y="2000" />
              <mxPoint x="1140" y="1810" />
              <mxPoint x="1080" y="1810" />
              <mxPoint x="258" y="1810" />
            </Array>
          </mxGeometry>
        </mxCell>
        <mxCell id="TXWCQ0G7Xnb6KMwIIaCa-143" value="" style="endArrow=classic;html=1;rounded=0;entryX=0.5;entryY=1;entryDx=0;entryDy=0;exitX=0.5;exitY=1;exitDx=0;exitDy=0;" parent="1" source="fapul2Xf9I7T7R9drmPT-5" target="fapul2Xf9I7T7R9drmPT-111" edge="1">
          <mxGeometry width="50" height="50" relative="1" as="geometry">
            <mxPoint x="420" y="2110" as="sourcePoint" />
            <mxPoint x="470" y="2060" as="targetPoint" />
            <Array as="points">
              <mxPoint x="559" y="2010" />
              <mxPoint x="1120" y="2010" />
              <mxPoint x="1120" y="1900" />
              <mxPoint x="260" y="1900" />
            </Array>
          </mxGeometry>
        </mxCell>
        <mxCell id="TXWCQ0G7Xnb6KMwIIaCa-144" value="" style="endArrow=classic;html=1;rounded=0;entryX=0.25;entryY=1;entryDx=0;entryDy=0;exitX=0.5;exitY=1;exitDx=0;exitDy=0;" parent="1" source="fapul2Xf9I7T7R9drmPT-89" target="TXWCQ0G7Xnb6KMwIIaCa-128" edge="1">
          <mxGeometry width="50" height="50" relative="1" as="geometry">
            <mxPoint x="470" y="2070" as="sourcePoint" />
            <mxPoint x="520" y="2020" as="targetPoint" />
            <Array as="points">
              <mxPoint x="460" y="2110" />
              <mxPoint x="40" y="2110" />
              <mxPoint x="40" y="1630" />
              <mxPoint x="234" y="1630" />
            </Array>
          </mxGeometry>
        </mxCell>
        <mxCell id="TXWCQ0G7Xnb6KMwIIaCa-145" value="" style="endArrow=classic;html=1;rounded=0;entryX=0.39;entryY=1.016;entryDx=0;entryDy=0;entryPerimeter=0;exitX=0.5;exitY=1;exitDx=0;exitDy=0;" parent="1" source="fapul2Xf9I7T7R9drmPT-128" target="TXWCQ0G7Xnb6KMwIIaCa-128" edge="1">
          <mxGeometry width="50" height="50" relative="1" as="geometry">
            <mxPoint x="90" y="1800" as="sourcePoint" />
            <mxPoint x="140" y="1750" as="targetPoint" />
            <Array as="points">
              <mxPoint x="358" y="2210" />
              <mxPoint x="60" y="2210" />
              <mxPoint x="60" y="1620" />
              <mxPoint x="248" y="1620" />
            </Array>
          </mxGeometry>
        </mxCell>
        <mxCell id="TXWCQ0G7Xnb6KMwIIaCa-146" value="" style="endArrow=classic;html=1;rounded=0;entryX=0.5;entryY=1;entryDx=0;entryDy=0;exitX=0.563;exitY=1.029;exitDx=0;exitDy=0;exitPerimeter=0;" parent="1" source="fapul2Xf9I7T7R9drmPT-22" target="fapul2Xf9I7T7R9drmPT-87" edge="1">
          <mxGeometry width="50" height="50" relative="1" as="geometry">
            <mxPoint x="370" y="2340" as="sourcePoint" />
            <mxPoint x="420" y="2290" as="targetPoint" />
            <Array as="points">
              <mxPoint x="364" y="2290" />
              <mxPoint x="870" y="2290" />
              <mxPoint x="870" y="2120" />
              <mxPoint x="260" y="2120" />
            </Array>
          </mxGeometry>
        </mxCell>
        <mxCell id="TXWCQ0G7Xnb6KMwIIaCa-147" value="" style="endArrow=classic;html=1;rounded=0;entryX=0.75;entryY=1;entryDx=0;entryDy=0;exitX=0.5;exitY=1;exitDx=0;exitDy=0;" parent="1" source="fapul2Xf9I7T7R9drmPT-23" target="fapul2Xf9I7T7R9drmPT-63" edge="1">
          <mxGeometry width="50" height="50" relative="1" as="geometry">
            <mxPoint x="610" y="2200" as="sourcePoint" />
            <mxPoint x="660" y="2150" as="targetPoint" />
            <Array as="points">
              <mxPoint x="458" y="2300" />
              <mxPoint x="1160" y="2300" />
              <mxPoint x="1160" y="1830" />
              <mxPoint x="283" y="1830" />
            </Array>
          </mxGeometry>
        </mxCell>
        <mxCell id="TXWCQ0G7Xnb6KMwIIaCa-148" value="" style="endArrow=classic;html=1;rounded=0;entryX=0.61;entryY=0.979;entryDx=0;entryDy=0;entryPerimeter=0;exitX=0.5;exitY=1;exitDx=0;exitDy=0;" parent="1" source="fapul2Xf9I7T7R9drmPT-24" target="TXWCQ0G7Xnb6KMwIIaCa-128" edge="1">
          <mxGeometry width="50" height="50" relative="1" as="geometry">
            <mxPoint x="110" y="1720" as="sourcePoint" />
            <mxPoint x="160" y="1670" as="targetPoint" />
            <Array as="points">
              <mxPoint x="570" y="2280" />
              <mxPoint x="50" y="2280" />
              <mxPoint x="50" y="1620" />
              <mxPoint x="270" y="1620" />
            </Array>
          </mxGeometry>
        </mxCell>
        <mxCell id="TXWCQ0G7Xnb6KMwIIaCa-149" value="" style="endArrow=classic;html=1;rounded=0;entryX=0.525;entryY=1;entryDx=0;entryDy=0;exitX=0.5;exitY=1;exitDx=0;exitDy=0;entryPerimeter=0;" parent="1" source="fapul2Xf9I7T7R9drmPT-30" target="fapul2Xf9I7T7R9drmPT-21" edge="1">
          <mxGeometry width="50" height="50" relative="1" as="geometry">
            <mxPoint x="160" y="2460" as="sourcePoint" />
            <mxPoint x="210" y="2410" as="targetPoint" />
            <Array as="points">
              <mxPoint x="360" y="2390" />
              <mxPoint x="960" y="2390" />
              <mxPoint x="960" y="2320" />
              <mxPoint x="260" y="2320" />
            </Array>
          </mxGeometry>
        </mxCell>
        <mxCell id="TXWCQ0G7Xnb6KMwIIaCa-150" value="" style="endArrow=classic;html=1;rounded=0;entryX=0.122;entryY=1.075;entryDx=0;entryDy=0;entryPerimeter=0;exitX=0.5;exitY=1;exitDx=0;exitDy=0;" parent="1" source="fapul2Xf9I7T7R9drmPT-32" target="TXWCQ0G7Xnb6KMwIIaCa-128" edge="1">
          <mxGeometry width="50" height="50" relative="1" as="geometry">
            <mxPoint x="130" y="1700" as="sourcePoint" />
            <mxPoint x="180" y="1650" as="targetPoint" />
            <Array as="points">
              <mxPoint x="560" y="2400" />
              <mxPoint x="60" y="2400" />
              <mxPoint x="60" y="1620" />
              <mxPoint x="221" y="1620" />
            </Array>
          </mxGeometry>
        </mxCell>
        <mxCell id="TXWCQ0G7Xnb6KMwIIaCa-151" value="" style="endArrow=classic;html=1;rounded=0;entryX=0.25;entryY=1;entryDx=0;entryDy=0;" parent="1" target="fapul2Xf9I7T7R9drmPT-63" edge="1">
          <mxGeometry width="50" height="50" relative="1" as="geometry">
            <mxPoint x="360" y="2470" as="sourcePoint" />
            <mxPoint x="260" y="1870" as="targetPoint" />
            <Array as="points">
              <mxPoint x="360" y="2500" />
              <mxPoint x="1190" y="2500" />
              <mxPoint x="1190" y="1820" />
              <mxPoint x="233" y="1820" />
            </Array>
          </mxGeometry>
        </mxCell>
        <mxCell id="TXWCQ0G7Xnb6KMwIIaCa-152" value="" style="endArrow=none;html=1;rounded=0;entryX=0.5;entryY=1;entryDx=0;entryDy=0;" parent="1" target="fapul2Xf9I7T7R9drmPT-42" edge="1">
          <mxGeometry width="50" height="50" relative="1" as="geometry">
            <mxPoint x="459" y="2500" as="sourcePoint" />
            <mxPoint x="530" y="2520" as="targetPoint" />
          </mxGeometry>
        </mxCell>
        <mxCell id="TXWCQ0G7Xnb6KMwIIaCa-153" value="" style="endArrow=none;html=1;rounded=0;entryX=0.5;entryY=1;entryDx=0;entryDy=0;" parent="1" target="fapul2Xf9I7T7R9drmPT-96" edge="1">
          <mxGeometry width="50" height="50" relative="1" as="geometry">
            <mxPoint x="1190" y="2500" as="sourcePoint" />
            <mxPoint x="410" y="2620" as="targetPoint" />
            <Array as="points">
              <mxPoint x="1190" y="2600" />
              <mxPoint x="460" y="2600" />
            </Array>
          </mxGeometry>
        </mxCell>
        <mxCell id="TXWCQ0G7Xnb6KMwIIaCa-154" value="" style="endArrow=classic;html=1;rounded=0;entryX=0.75;entryY=1;entryDx=0;entryDy=0;exitX=0.5;exitY=1;exitDx=0;exitDy=0;" parent="1" source="fapul2Xf9I7T7R9drmPT-73" target="fapul2Xf9I7T7R9drmPT-21" edge="1">
          <mxGeometry width="50" height="50" relative="1" as="geometry">
            <mxPoint x="270" y="2350" as="sourcePoint" />
            <mxPoint x="320" y="2300" as="targetPoint" />
            <Array as="points">
              <mxPoint x="460" y="2700" />
              <mxPoint x="1010" y="2700" />
              <mxPoint x="1010" y="2310" />
              <mxPoint x="283" y="2310" />
            </Array>
          </mxGeometry>
        </mxCell>
        <mxCell id="TXWCQ0G7Xnb6KMwIIaCa-155" value="" style="endArrow=none;html=1;rounded=0;exitX=0.5;exitY=1;exitDx=0;exitDy=0;" parent="1" source="fapul2Xf9I7T7R9drmPT-74" edge="1">
          <mxGeometry width="50" height="50" relative="1" as="geometry">
            <mxPoint x="630" y="2770" as="sourcePoint" />
            <mxPoint x="1190" y="2600" as="targetPoint" />
            <Array as="points">
              <mxPoint x="560" y="2690" />
              <mxPoint x="1190" y="2690" />
            </Array>
          </mxGeometry>
        </mxCell>
        <mxCell id="TXWCQ0G7Xnb6KMwIIaCa-156" value="" style="endArrow=classic;html=1;rounded=0;entryX=0.5;entryY=1;entryDx=0;entryDy=0;exitX=0.5;exitY=1;exitDx=0;exitDy=0;" parent="1" source="fapul2Xf9I7T7R9drmPT-72" target="fapul2Xf9I7T7R9drmPT-2" edge="1">
          <mxGeometry width="50" height="50" relative="1" as="geometry">
            <mxPoint x="90" y="2150" as="sourcePoint" />
            <mxPoint x="140" y="2100" as="targetPoint" />
            <Array as="points">
              <mxPoint x="360" y="2710" />
              <mxPoint x="1040" y="2710" />
              <mxPoint x="1040" y="2030" />
              <mxPoint x="259" y="2030" />
            </Array>
          </mxGeometry>
        </mxCell>
        <mxCell id="TXWCQ0G7Xnb6KMwIIaCa-157" value="" style="endArrow=classic;html=1;rounded=0;entryX=0.5;entryY=1;entryDx=0;entryDy=0;exitX=0.5;exitY=1;exitDx=0;exitDy=0;" parent="1" source="fapul2Xf9I7T7R9drmPT-104" target="fapul2Xf9I7T7R9drmPT-40" edge="1">
          <mxGeometry width="50" height="50" relative="1" as="geometry">
            <mxPoint x="240" y="2540" as="sourcePoint" />
            <mxPoint x="290" y="2490" as="targetPoint" />
            <Array as="points">
              <mxPoint x="364" y="2810" />
              <mxPoint x="50" y="2810" />
              <mxPoint x="50" y="2510" />
              <mxPoint x="260" y="2510" />
            </Array>
          </mxGeometry>
        </mxCell>
        <mxCell id="TXWCQ0G7Xnb6KMwIIaCa-159" value="" style="endArrow=none;html=1;rounded=0;exitX=0.562;exitY=-0.023;exitDx=0;exitDy=0;entryX=0.5;entryY=1;entryDx=0;entryDy=0;exitPerimeter=0;" parent="1" source="TXWCQ0G7Xnb6KMwIIaCa-160" target="TXWCQ0G7Xnb6KMwIIaCa-30" edge="1">
          <mxGeometry relative="1" as="geometry">
            <mxPoint x="500" y="125" as="sourcePoint" />
            <mxPoint x="650" y="110" as="targetPoint" />
          </mxGeometry>
        </mxCell>
        <mxCell id="TXWCQ0G7Xnb6KMwIIaCa-160" value="total_amount" style="ellipse;whiteSpace=wrap;html=1;align=center;dashed=1;" parent="1" vertex="1">
          <mxGeometry x="450" y="130" width="100" height="40" as="geometry" />
        </mxCell>
        <mxCell id="TXWCQ0G7Xnb6KMwIIaCa-161" value="total_fee" style="ellipse;whiteSpace=wrap;html=1;align=center;dashed=1;" parent="1" vertex="1">
          <mxGeometry x="50" y="-70" width="100" height="40" as="geometry" />
        </mxCell>
        <mxCell id="TXWCQ0G7Xnb6KMwIIaCa-162" value="" style="endArrow=none;html=1;rounded=0;exitX=0.428;exitY=1.024;exitDx=0;exitDy=0;exitPerimeter=0;entryX=0.5;entryY=0;entryDx=0;entryDy=0;" parent="1" source="TXWCQ0G7Xnb6KMwIIaCa-161" target="TXWCQ0G7Xnb6KMwIIaCa-24" edge="1">
          <mxGeometry relative="1" as="geometry">
            <mxPoint x="90" as="sourcePoint" />
            <mxPoint x="250" as="targetPoint" />
          </mxGeometry>
        </mxCell>
        <mxCell id="TXWCQ0G7Xnb6KMwIIaCa-163" value="" style="endArrow=classic;html=1;rounded=0;entryX=0.5;entryY=1;entryDx=0;entryDy=0;exitX=0.441;exitY=0.999;exitDx=0;exitDy=0;exitPerimeter=0;" parent="1" source="fapul2Xf9I7T7R9drmPT-82" target="fapul2Xf9I7T7R9drmPT-103" edge="1">
          <mxGeometry width="50" height="50" relative="1" as="geometry">
            <mxPoint x="270" y="2890" as="sourcePoint" />
            <mxPoint x="320" y="2840" as="targetPoint" />
            <Array as="points">
              <mxPoint x="553" y="2910" />
              <mxPoint x="870" y="2910" />
              <mxPoint x="870" y="2820" />
              <mxPoint x="264" y="2820" />
            </Array>
          </mxGeometry>
        </mxCell>
        <mxCell id="TXWCQ0G7Xnb6KMwIIaCa-164" value="" style="endArrow=classic;html=1;rounded=0;entryX=0.5;entryY=1;entryDx=0;entryDy=0;exitX=0.571;exitY=1.038;exitDx=0;exitDy=0;exitPerimeter=0;" parent="1" source="fapul2Xf9I7T7R9drmPT-81" target="fapul2Xf9I7T7R9drmPT-127" edge="1">
          <mxGeometry width="50" height="50" relative="1" as="geometry">
            <mxPoint x="430" y="2970" as="sourcePoint" />
            <mxPoint x="480" y="2920" as="targetPoint" />
            <Array as="points">
              <mxPoint x="466" y="2920" />
              <mxPoint x="980" y="2920" />
              <mxPoint x="980" y="2220" />
              <mxPoint x="258" y="2220" />
            </Array>
          </mxGeometry>
        </mxCell>
        <mxCell id="TXWCQ0G7Xnb6KMwIIaCa-165" value="" style="endArrow=classic;html=1;rounded=0;entryX=0.25;entryY=1;entryDx=0;entryDy=0;" parent="1" target="fapul2Xf9I7T7R9drmPT-2" edge="1">
          <mxGeometry width="50" height="50" relative="1" as="geometry">
            <mxPoint x="360" y="2890" as="sourcePoint" />
            <mxPoint x="220" y="2010" as="targetPoint" />
            <Array as="points">
              <mxPoint x="360" y="2910" />
              <mxPoint x="30" y="2910" />
              <mxPoint x="30" y="2020" />
              <mxPoint x="234" y="2020" />
            </Array>
          </mxGeometry>
        </mxCell>
        <mxCell id="DWnOnDIPn5ZGmolfu1KZ-1" value="Order&lt;div&gt;&lt;br&gt;&lt;/div&gt;" style="text;strokeColor=none;fillColor=none;spacingLeft=4;spacingRight=4;overflow=hidden;rotatable=0;points=[[0,0.5],[1,0.5]];portConstraint=eastwest;fontSize=12;whiteSpace=wrap;html=1;" vertex="1" parent="1">
          <mxGeometry x="2426" y="775" width="40" height="30" as="geometry" />
        </mxCell>
        <mxCell id="DWnOnDIPn5ZGmolfu1KZ-2" value="order_id" style="whiteSpace=wrap;html=1;align=center;" vertex="1" parent="1">
          <mxGeometry x="2516" y="770" width="100" height="40" as="geometry" />
        </mxCell>
        <mxCell id="DWnOnDIPn5ZGmolfu1KZ-3" value="customer_id" style="whiteSpace=wrap;html=1;align=center;" vertex="1" parent="1">
          <mxGeometry x="2616" y="770" width="100" height="40" as="geometry" />
        </mxCell>
        <mxCell id="DWnOnDIPn5ZGmolfu1KZ-4" value="station_id" style="whiteSpace=wrap;html=1;align=center;" vertex="1" parent="1">
          <mxGeometry x="2716" y="770" width="100" height="40" as="geometry" />
        </mxCell>
        <mxCell id="DWnOnDIPn5ZGmolfu1KZ-5" value="customs_id" style="whiteSpace=wrap;html=1;align=center;" vertex="1" parent="1">
          <mxGeometry x="2816" y="770" width="100" height="40" as="geometry" />
        </mxCell>
        <mxCell id="DWnOnDIPn5ZGmolfu1KZ-6" value="status" style="whiteSpace=wrap;html=1;align=center;" vertex="1" parent="1">
          <mxGeometry x="2916" y="770" width="100" height="40" as="geometry" />
        </mxCell>
        <mxCell id="DWnOnDIPn5ZGmolfu1KZ-7" value="create_at" style="whiteSpace=wrap;html=1;align=center;" vertex="1" parent="1">
          <mxGeometry x="3016" y="770" width="100" height="40" as="geometry" />
        </mxCell>
        <mxCell id="DWnOnDIPn5ZGmolfu1KZ-8" value="expected_delivery" style="whiteSpace=wrap;html=1;align=center;" vertex="1" parent="1">
          <mxGeometry x="3116" y="770" width="100" height="40" as="geometry" />
        </mxCell>
        <mxCell id="DWnOnDIPn5ZGmolfu1KZ-9" value="amount" style="whiteSpace=wrap;html=1;align=center;" vertex="1" parent="1">
          <mxGeometry x="3216" y="770" width="100" height="40" as="geometry" />
        </mxCell>
        <mxCell id="DWnOnDIPn5ZGmolfu1KZ-10" value="total_weight" style="whiteSpace=wrap;html=1;align=center;" vertex="1" parent="1">
          <mxGeometry x="3316" y="770" width="100" height="40" as="geometry" />
        </mxCell>
        <mxCell id="DWnOnDIPn5ZGmolfu1KZ-11" value="Customer" style="text;strokeColor=none;fillColor=none;spacingLeft=4;spacingRight=4;overflow=hidden;rotatable=0;points=[[0,0.5],[1,0.5]];portConstraint=eastwest;fontSize=12;whiteSpace=wrap;html=1;" vertex="1" parent="1">
          <mxGeometry x="2421" y="475" width="70" height="30" as="geometry" />
        </mxCell>
        <mxCell id="DWnOnDIPn5ZGmolfu1KZ-12" value="customer_id" style="whiteSpace=wrap;html=1;align=center;" vertex="1" parent="1">
          <mxGeometry x="2516" y="470" width="100" height="40" as="geometry" />
        </mxCell>
        <mxCell id="DWnOnDIPn5ZGmolfu1KZ-13" value="name" style="whiteSpace=wrap;html=1;align=center;" vertex="1" parent="1">
          <mxGeometry x="2616" y="470" width="100" height="40" as="geometry" />
        </mxCell>
        <mxCell id="DWnOnDIPn5ZGmolfu1KZ-14" value="phone_number" style="whiteSpace=wrap;html=1;align=center;" vertex="1" parent="1">
          <mxGeometry x="2716" y="470" width="100" height="40" as="geometry" />
        </mxCell>
        <mxCell id="DWnOnDIPn5ZGmolfu1KZ-15" value="country_id" style="whiteSpace=wrap;html=1;align=center;" vertex="1" parent="1">
          <mxGeometry x="2816" y="470" width="100" height="40" as="geometry" />
        </mxCell>
        <mxCell id="DWnOnDIPn5ZGmolfu1KZ-16" value="address" style="whiteSpace=wrap;html=1;align=center;" vertex="1" parent="1">
          <mxGeometry x="2916" y="470" width="100" height="40" as="geometry" />
        </mxCell>
        <mxCell id="DWnOnDIPn5ZGmolfu1KZ-17" value="tax_id" style="whiteSpace=wrap;html=1;align=center;" vertex="1" parent="1">
          <mxGeometry x="3016" y="470" width="100" height="40" as="geometry" />
        </mxCell>
        <mxCell id="DWnOnDIPn5ZGmolfu1KZ-18" value="email" style="whiteSpace=wrap;html=1;align=center;" vertex="1" parent="1">
          <mxGeometry x="3116" y="470" width="100" height="40" as="geometry" />
        </mxCell>
        <mxCell id="DWnOnDIPn5ZGmolfu1KZ-19" value="vehicle_id" style="whiteSpace=wrap;html=1;align=center;" vertex="1" parent="1">
          <mxGeometry x="2514.5" y="1060" width="100" height="40" as="geometry" />
        </mxCell>
        <mxCell id="DWnOnDIPn5ZGmolfu1KZ-20" value="provider_id" style="whiteSpace=wrap;html=1;align=center;" vertex="1" parent="1">
          <mxGeometry x="2614.5" y="1060" width="100" height="40" as="geometry" />
        </mxCell>
        <mxCell id="DWnOnDIPn5ZGmolfu1KZ-21" value="station_id" style="whiteSpace=wrap;html=1;align=center;" vertex="1" parent="1">
          <mxGeometry x="2714.5" y="1060" width="100" height="40" as="geometry" />
        </mxCell>
        <mxCell id="DWnOnDIPn5ZGmolfu1KZ-22" value="registration_contry" style="whiteSpace=wrap;html=1;align=center;" vertex="1" parent="1">
          <mxGeometry x="2814.5" y="1060" width="122.5" height="40" as="geometry" />
        </mxCell>
        <mxCell id="DWnOnDIPn5ZGmolfu1KZ-23" value="capacity" style="whiteSpace=wrap;html=1;align=center;" vertex="1" parent="1">
          <mxGeometry x="2932" y="1060" width="100" height="40" as="geometry" />
        </mxCell>
        <mxCell id="DWnOnDIPn5ZGmolfu1KZ-24" value="type" style="whiteSpace=wrap;html=1;align=center;" vertex="1" parent="1">
          <mxGeometry x="3032" y="1060" width="110" height="40" as="geometry" />
        </mxCell>
        <mxCell id="DWnOnDIPn5ZGmolfu1KZ-25" value="Vehicle" style="text;strokeColor=none;fillColor=none;spacingLeft=4;spacingRight=4;overflow=hidden;rotatable=0;points=[[0,0.5],[1,0.5]];portConstraint=eastwest;fontSize=12;whiteSpace=wrap;html=1;" vertex="1" parent="1">
          <mxGeometry x="2419.5" y="1065" width="70" height="30" as="geometry" />
        </mxCell>
        <mxCell id="DWnOnDIPn5ZGmolfu1KZ-26" value="driver_id" style="whiteSpace=wrap;html=1;align=center;" vertex="1" parent="1">
          <mxGeometry x="2516.5" y="1160" width="100" height="40" as="geometry" />
        </mxCell>
        <mxCell id="DWnOnDIPn5ZGmolfu1KZ-27" value="vehicle_id" style="whiteSpace=wrap;html=1;align=center;" vertex="1" parent="1">
          <mxGeometry x="2616.5" y="1160" width="100" height="40" as="geometry" />
        </mxCell>
        <mxCell id="DWnOnDIPn5ZGmolfu1KZ-28" value="name" style="whiteSpace=wrap;html=1;align=center;" vertex="1" parent="1">
          <mxGeometry x="2716.5" y="1160" width="100" height="40" as="geometry" />
        </mxCell>
        <mxCell id="DWnOnDIPn5ZGmolfu1KZ-29" value="nationality" style="whiteSpace=wrap;html=1;align=center;" vertex="1" parent="1">
          <mxGeometry x="2816.5" y="1160" width="100" height="40" as="geometry" />
        </mxCell>
        <mxCell id="DWnOnDIPn5ZGmolfu1KZ-30" value="visa_status" style="whiteSpace=wrap;html=1;align=center;" vertex="1" parent="1">
          <mxGeometry x="2917" y="1160" width="100" height="40" as="geometry" />
        </mxCell>
        <mxCell id="DWnOnDIPn5ZGmolfu1KZ-31" value="Driver" style="text;strokeColor=none;fillColor=none;spacingLeft=4;spacingRight=4;overflow=hidden;rotatable=0;points=[[0,0.5],[1,0.5]];portConstraint=eastwest;fontSize=12;whiteSpace=wrap;html=1;" vertex="1" parent="1">
          <mxGeometry x="2421.5" y="1165" width="55" height="30" as="geometry" />
        </mxCell>
        <mxCell id="DWnOnDIPn5ZGmolfu1KZ-32" value="route_id" style="whiteSpace=wrap;html=1;align=center;" vertex="1" parent="1">
          <mxGeometry x="2516" y="1260" width="100" height="40" as="geometry" />
        </mxCell>
        <mxCell id="DWnOnDIPn5ZGmolfu1KZ-33" value="station_from" style="whiteSpace=wrap;html=1;align=center;" vertex="1" parent="1">
          <mxGeometry x="2616" y="1260" width="100" height="40" as="geometry" />
        </mxCell>
        <mxCell id="DWnOnDIPn5ZGmolfu1KZ-34" value="station_to" style="whiteSpace=wrap;html=1;align=center;" vertex="1" parent="1">
          <mxGeometry x="2716" y="1260" width="100" height="40" as="geometry" />
        </mxCell>
        <mxCell id="DWnOnDIPn5ZGmolfu1KZ-35" value="distance" style="whiteSpace=wrap;html=1;align=center;" vertex="1" parent="1">
          <mxGeometry x="2816" y="1260" width="100" height="40" as="geometry" />
        </mxCell>
        <mxCell id="DWnOnDIPn5ZGmolfu1KZ-36" value="estimated_time" style="whiteSpace=wrap;html=1;align=center;" vertex="1" parent="1">
          <mxGeometry x="2916" y="1260" width="100" height="40" as="geometry" />
        </mxCell>
        <mxCell id="DWnOnDIPn5ZGmolfu1KZ-37" value="type" style="whiteSpace=wrap;html=1;align=center;" vertex="1" parent="1">
          <mxGeometry x="3016" y="1260" width="100" height="40" as="geometry" />
        </mxCell>
        <mxCell id="DWnOnDIPn5ZGmolfu1KZ-38" value="Route" style="text;strokeColor=none;fillColor=none;spacingLeft=4;spacingRight=4;overflow=hidden;rotatable=0;points=[[0,0.5],[1,0.5]];portConstraint=eastwest;fontSize=12;whiteSpace=wrap;html=1;" vertex="1" parent="1">
          <mxGeometry x="2426" y="1265" width="55" height="30" as="geometry" />
        </mxCell>
        <mxCell id="DWnOnDIPn5ZGmolfu1KZ-39" value="Station" style="text;strokeColor=none;fillColor=none;spacingLeft=4;spacingRight=4;overflow=hidden;rotatable=0;points=[[0,0.5],[1,0.5]];portConstraint=eastwest;fontSize=12;whiteSpace=wrap;html=1;" vertex="1" parent="1">
          <mxGeometry x="2420" y="575" width="70" height="30" as="geometry" />
        </mxCell>
        <mxCell id="DWnOnDIPn5ZGmolfu1KZ-40" value="station_id" style="whiteSpace=wrap;html=1;align=center;" vertex="1" parent="1">
          <mxGeometry x="2515" y="570" width="100" height="40" as="geometry" />
        </mxCell>
        <mxCell id="DWnOnDIPn5ZGmolfu1KZ-41" value="address" style="whiteSpace=wrap;html=1;align=center;" vertex="1" parent="1">
          <mxGeometry x="2715" y="570" width="100" height="40" as="geometry" />
        </mxCell>
        <mxCell id="DWnOnDIPn5ZGmolfu1KZ-42" value="station_name" style="whiteSpace=wrap;html=1;align=center;" vertex="1" parent="1">
          <mxGeometry x="2615" y="570" width="100" height="40" as="geometry" />
        </mxCell>
        <mxCell id="DWnOnDIPn5ZGmolfu1KZ-43" value="country_id" style="whiteSpace=wrap;html=1;align=center;" vertex="1" parent="1">
          <mxGeometry x="2815" y="570" width="100" height="40" as="geometry" />
        </mxCell>
        <mxCell id="DWnOnDIPn5ZGmolfu1KZ-44" value="Shipment_Details" style="text;strokeColor=none;fillColor=none;spacingLeft=4;spacingRight=4;overflow=hidden;rotatable=0;points=[[0,0.5],[1,0.5]];portConstraint=eastwest;fontSize=12;whiteSpace=wrap;html=1;" vertex="1" parent="1">
          <mxGeometry x="2392" y="1465" width="110" height="30" as="geometry" />
        </mxCell>
        <mxCell id="DWnOnDIPn5ZGmolfu1KZ-45" value="shipment_id" style="whiteSpace=wrap;html=1;align=center;" vertex="1" parent="1">
          <mxGeometry x="2517" y="1460" width="100" height="40" as="geometry" />
        </mxCell>
        <mxCell id="DWnOnDIPn5ZGmolfu1KZ-46" value="order_id" style="whiteSpace=wrap;html=1;align=center;" vertex="1" parent="1">
          <mxGeometry x="2617" y="1460" width="100" height="40" as="geometry" />
        </mxCell>
        <mxCell id="DWnOnDIPn5ZGmolfu1KZ-47" value="vehicle_id" style="whiteSpace=wrap;html=1;align=center;" vertex="1" parent="1">
          <mxGeometry x="2717" y="1460" width="100" height="40" as="geometry" />
        </mxCell>
        <mxCell id="DWnOnDIPn5ZGmolfu1KZ-48" value="route_id" style="whiteSpace=wrap;html=1;align=center;" vertex="1" parent="1">
          <mxGeometry x="2817" y="1460" width="100" height="40" as="geometry" />
        </mxCell>
        <mxCell id="DWnOnDIPn5ZGmolfu1KZ-49" value="departure" style="whiteSpace=wrap;html=1;align=center;" vertex="1" parent="1">
          <mxGeometry x="2917" y="1460" width="100" height="40" as="geometry" />
        </mxCell>
        <mxCell id="DWnOnDIPn5ZGmolfu1KZ-50" value="arrival_time" style="whiteSpace=wrap;html=1;align=center;" vertex="1" parent="1">
          <mxGeometry x="3017" y="1460" width="100" height="40" as="geometry" />
        </mxCell>
        <mxCell id="DWnOnDIPn5ZGmolfu1KZ-51" value="Invoice" style="text;strokeColor=none;fillColor=none;spacingLeft=4;spacingRight=4;overflow=hidden;rotatable=0;points=[[0,0.5],[1,0.5]];portConstraint=eastwest;fontSize=12;whiteSpace=wrap;html=1;" vertex="1" parent="1">
          <mxGeometry x="2417" y="1685" width="67" height="30" as="geometry" />
        </mxCell>
        <mxCell id="DWnOnDIPn5ZGmolfu1KZ-52" value="invoice_id" style="whiteSpace=wrap;html=1;align=center;" vertex="1" parent="1">
          <mxGeometry x="2516" y="1680" width="100" height="40" as="geometry" />
        </mxCell>
        <mxCell id="DWnOnDIPn5ZGmolfu1KZ-53" value="order_id" style="whiteSpace=wrap;html=1;align=center;" vertex="1" parent="1">
          <mxGeometry x="2616" y="1680" width="100" height="40" as="geometry" />
        </mxCell>
        <mxCell id="DWnOnDIPn5ZGmolfu1KZ-54" value="currency_id" style="whiteSpace=wrap;html=1;align=center;" vertex="1" parent="1">
          <mxGeometry x="2716" y="1680" width="100" height="40" as="geometry" />
        </mxCell>
        <mxCell id="DWnOnDIPn5ZGmolfu1KZ-55" value="fee_id" style="whiteSpace=wrap;html=1;align=center;" vertex="1" parent="1">
          <mxGeometry x="2816" y="1680" width="100" height="40" as="geometry" />
        </mxCell>
        <mxCell id="DWnOnDIPn5ZGmolfu1KZ-56" value="vat" style="whiteSpace=wrap;html=1;align=center;" vertex="1" parent="1">
          <mxGeometry x="2916" y="1680" width="100" height="40" as="geometry" />
        </mxCell>
        <mxCell id="DWnOnDIPn5ZGmolfu1KZ-57" value="issue_date" style="whiteSpace=wrap;html=1;align=center;" vertex="1" parent="1">
          <mxGeometry x="3016" y="1680" width="100" height="40" as="geometry" />
        </mxCell>
        <mxCell id="DWnOnDIPn5ZGmolfu1KZ-58" value="Transport_Provider" style="text;strokeColor=none;fillColor=none;spacingLeft=4;spacingRight=4;overflow=hidden;rotatable=0;points=[[0,0.5],[1,0.5]];portConstraint=eastwest;fontSize=12;whiteSpace=wrap;html=1;" vertex="1" parent="1">
          <mxGeometry x="2393" y="885" width="115" height="30" as="geometry" />
        </mxCell>
        <mxCell id="DWnOnDIPn5ZGmolfu1KZ-59" value="provider_id" style="whiteSpace=wrap;html=1;align=center;" vertex="1" parent="1">
          <mxGeometry x="2517" y="880" width="100" height="40" as="geometry" />
        </mxCell>
        <mxCell id="DWnOnDIPn5ZGmolfu1KZ-60" value="provider_name" style="whiteSpace=wrap;html=1;align=center;" vertex="1" parent="1">
          <mxGeometry x="2617" y="880" width="100" height="40" as="geometry" />
        </mxCell>
        <mxCell id="DWnOnDIPn5ZGmolfu1KZ-61" value="country_id" style="whiteSpace=wrap;html=1;align=center;" vertex="1" parent="1">
          <mxGeometry x="2717" y="880" width="100" height="40" as="geometry" />
        </mxCell>
        <mxCell id="DWnOnDIPn5ZGmolfu1KZ-62" value="type" style="whiteSpace=wrap;html=1;align=center;" vertex="1" parent="1">
          <mxGeometry x="2817" y="880" width="100" height="40" as="geometry" />
        </mxCell>
        <mxCell id="DWnOnDIPn5ZGmolfu1KZ-63" value="Warehouse" style="text;strokeColor=none;fillColor=none;spacingLeft=4;spacingRight=4;overflow=hidden;rotatable=0;points=[[0,0.5],[1,0.5]];portConstraint=eastwest;fontSize=12;whiteSpace=wrap;html=1;" vertex="1" parent="1">
          <mxGeometry x="2405.5" y="1365" width="73.5" height="30" as="geometry" />
        </mxCell>
        <mxCell id="DWnOnDIPn5ZGmolfu1KZ-64" value="warehouse_id" style="whiteSpace=wrap;html=1;align=center;" vertex="1" parent="1">
          <mxGeometry x="2517" y="1360" width="100" height="40" as="geometry" />
        </mxCell>
        <mxCell id="DWnOnDIPn5ZGmolfu1KZ-65" value="station_id" style="whiteSpace=wrap;html=1;align=center;" vertex="1" parent="1">
          <mxGeometry x="2717" y="1360" width="100" height="40" as="geometry" />
        </mxCell>
        <mxCell id="DWnOnDIPn5ZGmolfu1KZ-66" value="capacity" style="whiteSpace=wrap;html=1;align=center;" vertex="1" parent="1">
          <mxGeometry x="2617" y="1360" width="100" height="40" as="geometry" />
        </mxCell>
        <mxCell id="DWnOnDIPn5ZGmolfu1KZ-67" value="Shipping_Fee" style="text;strokeColor=none;fillColor=none;spacingLeft=4;spacingRight=4;overflow=hidden;rotatable=0;points=[[0,0.5],[1,0.5]];portConstraint=eastwest;fontSize=12;whiteSpace=wrap;html=1;" vertex="1" parent="1">
          <mxGeometry x="2409.25" y="1585" width="83.5" height="30" as="geometry" />
        </mxCell>
        <mxCell id="DWnOnDIPn5ZGmolfu1KZ-68" value="fee_id" style="whiteSpace=wrap;html=1;align=center;" vertex="1" parent="1">
          <mxGeometry x="2520.75" y="1580" width="100" height="40" as="geometry" />
        </mxCell>
        <mxCell id="DWnOnDIPn5ZGmolfu1KZ-69" value="route_id" style="whiteSpace=wrap;html=1;align=center;" vertex="1" parent="1">
          <mxGeometry x="2620.75" y="1580" width="100" height="40" as="geometry" />
        </mxCell>
        <mxCell id="DWnOnDIPn5ZGmolfu1KZ-70" value="base_fee" style="whiteSpace=wrap;html=1;align=center;" vertex="1" parent="1">
          <mxGeometry x="2719.75" y="1580" width="100" height="40" as="geometry" />
        </mxCell>
        <mxCell id="DWnOnDIPn5ZGmolfu1KZ-71" value="tax_rate" style="whiteSpace=wrap;html=1;align=center;" vertex="1" parent="1">
          <mxGeometry x="2819.75" y="1580" width="100" height="40" as="geometry" />
        </mxCell>
        <mxCell id="DWnOnDIPn5ZGmolfu1KZ-72" value="Customs" style="text;strokeColor=none;fillColor=none;spacingLeft=4;spacingRight=4;overflow=hidden;rotatable=0;points=[[0,0.5],[1,0.5]];portConstraint=eastwest;fontSize=12;whiteSpace=wrap;html=1;" vertex="1" parent="1">
          <mxGeometry x="2411" y="675" width="67" height="30" as="geometry" />
        </mxCell>
        <mxCell id="DWnOnDIPn5ZGmolfu1KZ-73" value="customs_id" style="whiteSpace=wrap;html=1;align=center;" vertex="1" parent="1">
          <mxGeometry x="2516" y="670" width="100" height="40" as="geometry" />
        </mxCell>
        <mxCell id="DWnOnDIPn5ZGmolfu1KZ-74" value="country_id" style="whiteSpace=wrap;html=1;align=center;" vertex="1" parent="1">
          <mxGeometry x="2616" y="670" width="100" height="40" as="geometry" />
        </mxCell>
        <mxCell id="DWnOnDIPn5ZGmolfu1KZ-75" value="regulation" style="whiteSpace=wrap;html=1;align=center;" vertex="1" parent="1">
          <mxGeometry x="2716" y="670" width="100" height="40" as="geometry" />
        </mxCell>
        <mxCell id="DWnOnDIPn5ZGmolfu1KZ-76" value="processing_time" style="whiteSpace=wrap;html=1;align=center;" vertex="1" parent="1">
          <mxGeometry x="2816" y="670" width="100" height="40" as="geometry" />
        </mxCell>
        <mxCell id="DWnOnDIPn5ZGmolfu1KZ-77" value="Currency_Exchange" style="text;strokeColor=none;fillColor=none;spacingLeft=4;spacingRight=4;overflow=hidden;rotatable=0;points=[[0,0.5],[1,0.5]];portConstraint=eastwest;fontSize=12;whiteSpace=wrap;html=1;" vertex="1" parent="1">
          <mxGeometry x="2370" y="987.5" width="120" height="25" as="geometry" />
        </mxCell>
        <mxCell id="DWnOnDIPn5ZGmolfu1KZ-78" value="currency_id" style="whiteSpace=wrap;html=1;align=center;" vertex="1" parent="1">
          <mxGeometry x="2515" y="980" width="100" height="40" as="geometry" />
        </mxCell>
        <mxCell id="DWnOnDIPn5ZGmolfu1KZ-79" value="country_id" style="whiteSpace=wrap;html=1;align=center;" vertex="1" parent="1">
          <mxGeometry x="2615" y="980" width="100" height="40" as="geometry" />
        </mxCell>
        <mxCell id="DWnOnDIPn5ZGmolfu1KZ-80" value="exchange_rate" style="whiteSpace=wrap;html=1;align=center;" vertex="1" parent="1">
          <mxGeometry x="2715" y="980" width="100" height="40" as="geometry" />
        </mxCell>
        <mxCell id="DWnOnDIPn5ZGmolfu1KZ-81" value="last_updated" style="whiteSpace=wrap;html=1;align=center;" vertex="1" parent="1">
          <mxGeometry x="2815" y="980" width="100" height="40" as="geometry" />
        </mxCell>
        <mxCell id="DWnOnDIPn5ZGmolfu1KZ-82" value="&lt;div&gt;Region&lt;/div&gt;" style="text;strokeColor=none;fillColor=none;spacingLeft=4;spacingRight=4;overflow=hidden;rotatable=0;points=[[0,0.5],[1,0.5]];portConstraint=eastwest;fontSize=12;whiteSpace=wrap;html=1;" vertex="1" parent="1">
          <mxGeometry x="2426" y="305" width="60" height="30" as="geometry" />
        </mxCell>
        <mxCell id="DWnOnDIPn5ZGmolfu1KZ-83" value="region_id" style="whiteSpace=wrap;html=1;align=center;" vertex="1" parent="1">
          <mxGeometry x="2516" y="300" width="100" height="40" as="geometry" />
        </mxCell>
        <mxCell id="DWnOnDIPn5ZGmolfu1KZ-84" value="region_name" style="whiteSpace=wrap;html=1;align=center;" vertex="1" parent="1">
          <mxGeometry x="2616" y="300" width="100" height="40" as="geometry" />
        </mxCell>
        <mxCell id="DWnOnDIPn5ZGmolfu1KZ-85" value="Country" style="text;strokeColor=none;fillColor=none;spacingLeft=4;spacingRight=4;overflow=hidden;rotatable=0;points=[[0,0.5],[1,0.5]];portConstraint=eastwest;fontSize=12;whiteSpace=wrap;html=1;" vertex="1" parent="1">
          <mxGeometry x="2426" y="385" width="60" height="30" as="geometry" />
        </mxCell>
        <mxCell id="DWnOnDIPn5ZGmolfu1KZ-86" value="country_id" style="whiteSpace=wrap;html=1;align=center;" vertex="1" parent="1">
          <mxGeometry x="2516" y="380" width="100" height="40" as="geometry" />
        </mxCell>
        <mxCell id="DWnOnDIPn5ZGmolfu1KZ-87" value="country_name" style="whiteSpace=wrap;html=1;align=center;" vertex="1" parent="1">
          <mxGeometry x="2616" y="380" width="100" height="40" as="geometry" />
        </mxCell>
        <mxCell id="DWnOnDIPn5ZGmolfu1KZ-88" value="region_id" style="whiteSpace=wrap;html=1;align=center;" vertex="1" parent="1">
          <mxGeometry x="2716" y="380" width="100" height="40" as="geometry" />
        </mxCell>
        <mxCell id="DWnOnDIPn5ZGmolfu1KZ-89" value="time_zone" style="whiteSpace=wrap;html=1;align=center;" vertex="1" parent="1">
          <mxGeometry x="2815" y="380" width="100" height="40" as="geometry" />
        </mxCell>
        <mxCell id="DWnOnDIPn5ZGmolfu1KZ-114" value="" style="endArrow=classic;html=1;rounded=0;exitX=0;exitY=1;exitDx=0;exitDy=0;entryX=0.448;entryY=-0.014;entryDx=0;entryDy=0;entryPerimeter=0;" edge="1" parent="1" source="DWnOnDIPn5ZGmolfu1KZ-83" target="DWnOnDIPn5ZGmolfu1KZ-86">
          <mxGeometry width="50" height="50" relative="1" as="geometry">
            <mxPoint x="2520" y="400" as="sourcePoint" />
            <mxPoint x="2570" y="350" as="targetPoint" />
          </mxGeometry>
        </mxCell>
        <mxCell id="DWnOnDIPn5ZGmolfu1KZ-115" value="L1" style="text;strokeColor=none;fillColor=none;align=left;verticalAlign=middle;spacingLeft=4;spacingRight=4;overflow=hidden;points=[[0,0.5],[1,0.5]];portConstraint=eastwest;rotatable=0;whiteSpace=wrap;html=1;" vertex="1" parent="1">
          <mxGeometry x="2550" y="345" width="30" height="25" as="geometry" />
        </mxCell>
        <mxCell id="DWnOnDIPn5ZGmolfu1KZ-116" value="" style="endArrow=classic;html=1;rounded=0;exitX=0.5;exitY=1;exitDx=0;exitDy=0;entryX=0.75;entryY=0;entryDx=0;entryDy=0;" edge="1" parent="1" source="DWnOnDIPn5ZGmolfu1KZ-86" target="DWnOnDIPn5ZGmolfu1KZ-12">
          <mxGeometry width="50" height="50" relative="1" as="geometry">
            <mxPoint x="2590" y="500" as="sourcePoint" />
            <mxPoint x="2640" y="450" as="targetPoint" />
          </mxGeometry>
        </mxCell>
        <mxCell id="DWnOnDIPn5ZGmolfu1KZ-117" value="L2" style="text;strokeColor=none;fillColor=none;align=left;verticalAlign=middle;spacingLeft=4;spacingRight=4;overflow=hidden;points=[[0,0.5],[1,0.5]];portConstraint=eastwest;rotatable=0;whiteSpace=wrap;html=1;" vertex="1" parent="1">
          <mxGeometry x="2580" y="430" width="30" height="25" as="geometry" />
        </mxCell>
        <mxCell id="DWnOnDIPn5ZGmolfu1KZ-118" value="" style="endArrow=classic;html=1;rounded=0;exitX=0;exitY=1;exitDx=0;exitDy=0;entryX=0;entryY=0;entryDx=0;entryDy=0;" edge="1" parent="1" source="DWnOnDIPn5ZGmolfu1KZ-86" target="DWnOnDIPn5ZGmolfu1KZ-40">
          <mxGeometry width="50" height="50" relative="1" as="geometry">
            <mxPoint x="2370" y="570" as="sourcePoint" />
            <mxPoint x="2420" y="520" as="targetPoint" />
            <Array as="points">
              <mxPoint x="2515" y="440" />
              <mxPoint x="2400" y="440" />
              <mxPoint x="2400" y="560" />
            </Array>
          </mxGeometry>
        </mxCell>
        <mxCell id="DWnOnDIPn5ZGmolfu1KZ-119" value="L3" style="text;strokeColor=none;fillColor=none;align=left;verticalAlign=middle;spacingLeft=4;spacingRight=4;overflow=hidden;points=[[0,0.5],[1,0.5]];portConstraint=eastwest;rotatable=0;whiteSpace=wrap;html=1;" vertex="1" parent="1">
          <mxGeometry x="2472" y="545" width="30" height="25" as="geometry" />
        </mxCell>
        <mxCell id="DWnOnDIPn5ZGmolfu1KZ-120" value="" style="endArrow=classic;html=1;rounded=0;exitX=0;exitY=0.75;exitDx=0;exitDy=0;entryX=0;entryY=0.25;entryDx=0;entryDy=0;" edge="1" parent="1" source="DWnOnDIPn5ZGmolfu1KZ-86" target="DWnOnDIPn5ZGmolfu1KZ-73">
          <mxGeometry width="50" height="50" relative="1" as="geometry">
            <mxPoint x="2500" y="670" as="sourcePoint" />
            <mxPoint x="2550" y="620" as="targetPoint" />
            <Array as="points">
              <mxPoint x="2360" y="410" />
              <mxPoint x="2360" y="660" />
            </Array>
          </mxGeometry>
        </mxCell>
        <mxCell id="DWnOnDIPn5ZGmolfu1KZ-121" value="L4" style="text;strokeColor=none;fillColor=none;align=left;verticalAlign=middle;spacingLeft=4;spacingRight=4;overflow=hidden;points=[[0,0.5],[1,0.5]];portConstraint=eastwest;rotatable=0;whiteSpace=wrap;html=1;" vertex="1" parent="1">
          <mxGeometry x="2472" y="650" width="30" height="25" as="geometry" />
        </mxCell>
        <mxCell id="DWnOnDIPn5ZGmolfu1KZ-122" value="" style="endArrow=classic;html=1;rounded=0;entryX=0.5;entryY=0;entryDx=0;entryDy=0;" edge="1" parent="1" target="DWnOnDIPn5ZGmolfu1KZ-2">
          <mxGeometry width="50" height="50" relative="1" as="geometry">
            <mxPoint x="2550" y="512" as="sourcePoint" />
            <mxPoint x="3050" y="570" as="targetPoint" />
            <Array as="points">
              <mxPoint x="2570" y="550" />
              <mxPoint x="3000" y="560" />
              <mxPoint x="3000" y="740" />
            </Array>
          </mxGeometry>
        </mxCell>
        <mxCell id="DWnOnDIPn5ZGmolfu1KZ-123" value="L5" style="text;strokeColor=none;fillColor=none;align=left;verticalAlign=middle;spacingLeft=4;spacingRight=4;overflow=hidden;points=[[0,0.5],[1,0.5]];portConstraint=eastwest;rotatable=0;whiteSpace=wrap;html=1;" vertex="1" parent="1">
          <mxGeometry x="2967" y="588.5" width="30" height="25" as="geometry" />
        </mxCell>
        <mxCell id="DWnOnDIPn5ZGmolfu1KZ-124" value="" style="endArrow=classic;html=1;rounded=0;exitX=0.869;exitY=1.056;exitDx=0;exitDy=0;exitPerimeter=0;entryX=0.5;entryY=0;entryDx=0;entryDy=0;" edge="1" parent="1" source="DWnOnDIPn5ZGmolfu1KZ-86" target="DWnOnDIPn5ZGmolfu1KZ-59">
          <mxGeometry width="50" height="50" relative="1" as="geometry">
            <mxPoint x="3070" y="570" as="sourcePoint" />
            <mxPoint x="3120" y="520" as="targetPoint" />
            <Array as="points">
              <mxPoint x="2620" y="450" />
              <mxPoint x="3460" y="460" />
              <mxPoint x="3460" y="850" />
            </Array>
          </mxGeometry>
        </mxCell>
        <mxCell id="DWnOnDIPn5ZGmolfu1KZ-125" value="L6" style="text;strokeColor=none;fillColor=none;align=left;verticalAlign=middle;spacingLeft=4;spacingRight=4;overflow=hidden;points=[[0,0.5],[1,0.5]];portConstraint=eastwest;rotatable=0;whiteSpace=wrap;html=1;" vertex="1" parent="1">
          <mxGeometry x="3416" y="610" width="30" height="25" as="geometry" />
        </mxCell>
        <mxCell id="DWnOnDIPn5ZGmolfu1KZ-126" value="" style="endArrow=classic;html=1;rounded=0;entryX=0;entryY=0;entryDx=0;entryDy=0;exitX=0;exitY=1;exitDx=0;exitDy=0;" edge="1" parent="1" source="DWnOnDIPn5ZGmolfu1KZ-86" target="DWnOnDIPn5ZGmolfu1KZ-78">
          <mxGeometry width="50" height="50" relative="1" as="geometry">
            <mxPoint x="2390" y="980" as="sourcePoint" />
            <mxPoint x="2440" y="930" as="targetPoint" />
            <Array as="points">
              <mxPoint x="2280" y="450" />
              <mxPoint x="2280" y="980" />
            </Array>
          </mxGeometry>
        </mxCell>
        <mxCell id="DWnOnDIPn5ZGmolfu1KZ-127" value="L7" style="text;strokeColor=none;fillColor=none;align=left;verticalAlign=middle;spacingLeft=4;spacingRight=4;overflow=hidden;points=[[0,0.5],[1,0.5]];portConstraint=eastwest;rotatable=0;whiteSpace=wrap;html=1;" vertex="1" parent="1">
          <mxGeometry x="2462.75" y="947.5" width="30" height="25" as="geometry" />
        </mxCell>
        <mxCell id="DWnOnDIPn5ZGmolfu1KZ-128" value="" style="endArrow=classic;html=1;rounded=0;exitX=0.5;exitY=1;exitDx=0;exitDy=0;entryX=0.5;entryY=0;entryDx=0;entryDy=0;" edge="1" parent="1" source="DWnOnDIPn5ZGmolfu1KZ-59" target="DWnOnDIPn5ZGmolfu1KZ-19">
          <mxGeometry width="50" height="50" relative="1" as="geometry">
            <mxPoint x="2690" y="1110" as="sourcePoint" />
            <mxPoint x="2740" y="1060" as="targetPoint" />
            <Array as="points">
              <mxPoint x="3110" y="970" />
              <mxPoint x="3110" y="1030" />
            </Array>
          </mxGeometry>
        </mxCell>
        <mxCell id="DWnOnDIPn5ZGmolfu1KZ-129" value="L8" style="text;strokeColor=none;fillColor=none;align=left;verticalAlign=middle;spacingLeft=4;spacingRight=4;overflow=hidden;points=[[0,0.5],[1,0.5]];portConstraint=eastwest;rotatable=0;whiteSpace=wrap;html=1;" vertex="1" parent="1">
          <mxGeometry x="3060" y="932.5" width="30" height="25" as="geometry" />
        </mxCell>
        <mxCell id="DWnOnDIPn5ZGmolfu1KZ-130" value="" style="endArrow=classic;html=1;rounded=0;exitX=0.434;exitY=1.07;exitDx=0;exitDy=0;exitPerimeter=0;entryX=0.134;entryY=0.098;entryDx=0;entryDy=0;entryPerimeter=0;" edge="1" parent="1" source="DWnOnDIPn5ZGmolfu1KZ-19" target="DWnOnDIPn5ZGmolfu1KZ-27">
          <mxGeometry width="50" height="50" relative="1" as="geometry">
            <mxPoint x="2590" y="1170" as="sourcePoint" />
            <mxPoint x="2640" y="1120" as="targetPoint" />
          </mxGeometry>
        </mxCell>
        <mxCell id="DWnOnDIPn5ZGmolfu1KZ-131" value="L9" style="text;strokeColor=none;fillColor=none;align=left;verticalAlign=middle;spacingLeft=4;spacingRight=4;overflow=hidden;points=[[0,0.5],[1,0.5]];portConstraint=eastwest;rotatable=0;whiteSpace=wrap;html=1;" vertex="1" parent="1">
          <mxGeometry x="2600" y="1107.5" width="30" height="25" as="geometry" />
        </mxCell>
        <mxCell id="DWnOnDIPn5ZGmolfu1KZ-132" value="" style="endArrow=classic;html=1;rounded=0;exitX=0.75;exitY=1;exitDx=0;exitDy=0;entryX=0.5;entryY=0;entryDx=0;entryDy=0;" edge="1" parent="1" source="DWnOnDIPn5ZGmolfu1KZ-40" target="DWnOnDIPn5ZGmolfu1KZ-32">
          <mxGeometry width="50" height="50" relative="1" as="geometry">
            <mxPoint x="3300" y="970" as="sourcePoint" />
            <mxPoint x="3350" y="920" as="targetPoint" />
            <Array as="points">
              <mxPoint x="2600" y="640" />
              <mxPoint x="3480" y="680" />
              <mxPoint x="3480" y="1220" />
              <mxPoint x="2566" y="1240" />
            </Array>
          </mxGeometry>
        </mxCell>
        <mxCell id="DWnOnDIPn5ZGmolfu1KZ-133" value="L10" style="text;strokeColor=none;fillColor=none;align=left;verticalAlign=middle;spacingLeft=4;spacingRight=4;overflow=hidden;points=[[0,0.5],[1,0.5]];portConstraint=eastwest;rotatable=0;whiteSpace=wrap;html=1;" vertex="1" parent="1">
          <mxGeometry x="3186" y="1195" width="30" height="25" as="geometry" />
        </mxCell>
        <mxCell id="DWnOnDIPn5ZGmolfu1KZ-134" value="" style="endArrow=classic;html=1;rounded=0;entryX=1;entryY=0.5;entryDx=0;entryDy=0;" edge="1" parent="1" target="DWnOnDIPn5ZGmolfu1KZ-65">
          <mxGeometry width="50" height="50" relative="1" as="geometry">
            <mxPoint x="3480" y="1220" as="sourcePoint" />
            <mxPoint x="3220" y="1410" as="targetPoint" />
            <Array as="points">
              <mxPoint x="3480" y="1380" />
            </Array>
          </mxGeometry>
        </mxCell>
        <mxCell id="DWnOnDIPn5ZGmolfu1KZ-135" value="L11" style="text;strokeColor=none;fillColor=none;align=left;verticalAlign=middle;spacingLeft=4;spacingRight=4;overflow=hidden;points=[[0,0.5],[1,0.5]];portConstraint=eastwest;rotatable=0;whiteSpace=wrap;html=1;" vertex="1" parent="1">
          <mxGeometry x="2937" y="1350" width="30" height="25" as="geometry" />
        </mxCell>
        <mxCell id="DWnOnDIPn5ZGmolfu1KZ-136" value="" style="endArrow=classic;html=1;rounded=0;entryX=0;entryY=0.75;entryDx=0;entryDy=0;exitX=0.5;exitY=1;exitDx=0;exitDy=0;" edge="1" parent="1" source="DWnOnDIPn5ZGmolfu1KZ-2" target="DWnOnDIPn5ZGmolfu1KZ-45">
          <mxGeometry width="50" height="50" relative="1" as="geometry">
            <mxPoint x="2400" y="1570" as="sourcePoint" />
            <mxPoint x="2450" y="1520" as="targetPoint" />
            <Array as="points">
              <mxPoint x="2320" y="830" />
              <mxPoint x="2330" y="1490" />
            </Array>
          </mxGeometry>
        </mxCell>
        <mxCell id="DWnOnDIPn5ZGmolfu1KZ-137" value="L12" style="text;strokeColor=none;fillColor=none;align=left;verticalAlign=middle;spacingLeft=4;spacingRight=4;overflow=hidden;points=[[0,0.5],[1,0.5]];portConstraint=eastwest;rotatable=0;whiteSpace=wrap;html=1;" vertex="1" parent="1">
          <mxGeometry x="2340" y="1465" width="30" height="25" as="geometry" />
        </mxCell>
        <mxCell id="DWnOnDIPn5ZGmolfu1KZ-138" value="" style="endArrow=classic;html=1;rounded=0;entryX=0.63;entryY=-0.04;entryDx=0;entryDy=0;entryPerimeter=0;exitX=0.5;exitY=1;exitDx=0;exitDy=0;" edge="1" parent="1" source="DWnOnDIPn5ZGmolfu1KZ-32" target="DWnOnDIPn5ZGmolfu1KZ-68">
          <mxGeometry width="50" height="50" relative="1" as="geometry">
            <mxPoint x="2690" y="1590" as="sourcePoint" />
            <mxPoint x="2740" y="1540" as="targetPoint" />
            <Array as="points">
              <mxPoint x="3210" y="1350" />
              <mxPoint x="3210" y="1560" />
            </Array>
          </mxGeometry>
        </mxCell>
        <mxCell id="DWnOnDIPn5ZGmolfu1KZ-139" value="L13" style="text;strokeColor=none;fillColor=none;align=left;verticalAlign=middle;spacingLeft=4;spacingRight=4;overflow=hidden;points=[[0,0.5],[1,0.5]];portConstraint=eastwest;rotatable=0;whiteSpace=wrap;html=1;" vertex="1" parent="1">
          <mxGeometry x="3170" y="1530" width="30" height="25" as="geometry" />
        </mxCell>
        <mxCell id="DWnOnDIPn5ZGmolfu1KZ-140" value="" style="endArrow=classic;html=1;rounded=0;entryX=0;entryY=0.5;entryDx=0;entryDy=0;" edge="1" parent="1" target="DWnOnDIPn5ZGmolfu1KZ-52">
          <mxGeometry width="50" height="50" relative="1" as="geometry">
            <mxPoint x="2330" y="1490" as="sourcePoint" />
            <mxPoint x="2370" y="1660" as="targetPoint" />
            <Array as="points">
              <mxPoint x="2330" y="1680" />
            </Array>
          </mxGeometry>
        </mxCell>
        <mxCell id="DWnOnDIPn5ZGmolfu1KZ-141" value="L13" style="text;strokeColor=none;fillColor=none;align=left;verticalAlign=middle;spacingLeft=4;spacingRight=4;overflow=hidden;points=[[0,0.5],[1,0.5]];portConstraint=eastwest;rotatable=0;whiteSpace=wrap;html=1;" vertex="1" parent="1">
          <mxGeometry x="2381" y="1660" width="30" height="25" as="geometry" />
        </mxCell>
      </root>
    </mxGraphModel>
  </diagram>
</mxfile>
